<?xml version="1.0" encoding="UTF-8"?>
<svg xmlns="http://www.w3.org/2000/svg" xmlns:xlink="http://www.w3.org/1999/xlink" width="124pt" height="45pt" viewBox="0 0 124 45" version="1.1">
<g id="surface1">
<path style=" stroke:none;fill-rule:nonzero;fill:rgb(100%,100%,100%);fill-opacity:1;" d="M 13.445312 11.933594 L 5.648438 29.933594 L 5.648438 31.921875 L 7.042969 30.421875 L 13.664062 12 Z M 13.445312 11.933594 "/>
<path style=" stroke:none;fill-rule:nonzero;fill:rgb(100%,100%,100%);fill-opacity:1;" d="M 12.855469 11.632812 L 4.160156 27 L 3.734375 29.175781 L 5.3125 27.675781 L 13.085938 11.773438 Z M 12.855469 11.632812 "/>
<path style=" stroke:none;fill-rule:nonzero;fill:rgb(100%,100%,100%);fill-opacity:1;" d="M 12.414062 11.289062 L 2.941406 23.386719 L 2.089844 25.695312 L 3.996094 24.425781 L 12.570312 11.421875 Z M 12.414062 11.289062 "/>
<path style=" stroke:none;fill-rule:nonzero;fill:rgb(100%,100%,100%);fill-opacity:1;" d="M 11.953125 10.800781 L 2.113281 19.890625 L 1.367188 21.808594 L 2.988281 21.171875 L 12.152344 11.015625 Z M 11.953125 10.800781 "/>
<path style=" stroke:none;fill-rule:nonzero;fill:rgb(100%,100%,100%);fill-opacity:1;" d="M 11.652344 10.28125 L 2.242188 16.125 L 1.21875 17.625 L 2.710938 17.386719 L 11.824219 10.558594 C 11.75 10.5 11.699219 10.371094 11.652344 10.28125 Z M 11.652344 10.28125 "/>
<path style=" stroke:none;fill-rule:nonzero;fill:rgb(100%,100%,100%);fill-opacity:1;" d="M 11.429688 9.75 L 2.675781 13.074219 L 1.492188 14.25 L 3.167969 14.160156 L 11.539062 9.976562 C 11.488281 9.90625 11.457031 9.816406 11.429688 9.75 Z M 11.429688 9.75 "/>
<path style=" stroke:none;fill-rule:nonzero;fill:rgb(100%,100%,100%);fill-opacity:1;" d="M 11.300781 9.121094 L 3.578125 10.371094 L 2.242188 11.191406 L 3.734375 11.476562 L 11.332031 9.375 C 11.324219 9.292969 11.308594 9.210938 11.300781 9.121094 Z M 11.300781 9.121094 "/>
<path style=" stroke:none;fill-rule:nonzero;fill:rgb(100%,100%,100%);fill-opacity:1;" d="M 4.363281 8.183594 L 3.347656 8.585938 L 4.363281 9 L 11.273438 8.691406 C 11.273438 8.617188 11.273438 8.542969 11.273438 8.476562 Z M 4.363281 8.183594 "/>
<path style=" stroke:none;fill-rule:nonzero;fill:rgb(100%,100%,100%);fill-opacity:1;" d="M 4.535156 6.890625 L 5.59375 7.492188 L 11.339844 8.101562 C 11.339844 8.011719 11.339844 7.921875 11.398438 7.835938 L 5.789062 6.613281 Z M 4.535156 6.890625 "/>
<path style=" stroke:none;fill-rule:nonzero;fill:rgb(100%,100%,100%);fill-opacity:1;" d="M 7 5.175781 L 5.683594 5.175781 L 6.671875 6 L 11.527344 7.5 L 11.617188 7.289062 Z M 7 5.175781 "/>
<path style=" stroke:none;fill-rule:nonzero;fill:rgb(100%,100%,100%);fill-opacity:1;" d="M 8.03125 3.921875 L 7.132812 3.863281 L 7.574219 4.613281 L 11.839844 6.824219 L 11.953125 6.675781 Z M 8.03125 3.921875 "/>
<path style=" stroke:none;fill-rule:nonzero;fill:rgb(100%,100%,100%);fill-opacity:1;" d="M 9.367188 3 L 8.472656 2.789062 L 8.730469 3.636719 L 12.222656 6.351562 L 12.378906 6.195312 Z M 9.367188 3 "/>
<path style=" stroke:none;fill-rule:nonzero;fill:rgb(100%,100%,100%);fill-opacity:1;" d="M 12.699219 5.910156 L 12.902344 5.773438 L 10.660156 2.113281 L 9.816406 1.71875 L 9.941406 2.65625 Z M 12.699219 5.910156 "/>
<path style=" stroke:none;fill-rule:nonzero;fill:rgb(100%,100%,100%);fill-opacity:1;" d="M 13.542969 5.46875 L 12.050781 1.394531 L 11.300781 0.886719 L 11.226562 1.777344 L 13.3125 5.527344 Z M 13.542969 5.46875 "/>
<path style=" stroke:none;fill-rule:nonzero;fill:rgb(100%,100%,100%);fill-opacity:1;" d="M 14.011719 5.316406 L 14.261719 5.25 L 13.640625 0.996094 L 13.019531 0.34375 L 12.796875 1.230469 Z M 14.011719 5.316406 "/>
<path style=" stroke:none;fill-rule:nonzero;fill:rgb(100%,100%,100%);fill-opacity:1;" d="M 14.878906 5.210938 L 15.007812 5.210938 L 15.304688 0.796875 L 14.878906 0 L 14.453125 0.75 L 14.761719 5.25 Z M 14.878906 5.210938 "/>
<path style=" stroke:none;fill-rule:nonzero;fill:rgb(100%,100%,100%);fill-opacity:1;" d="M 16.359375 11.933594 L 16.105469 12.039062 L 22.761719 30.367188 L 24.15625 31.867188 L 24.15625 29.902344 Z M 16.359375 11.933594 "/>
<path style=" stroke:none;fill-rule:nonzero;fill:rgb(100%,100%,100%);fill-opacity:1;" d="M 16.910156 11.632812 L 16.679688 11.773438 L 24.425781 27.667969 L 26.003906 29.167969 L 25.605469 27 Z M 16.910156 11.632812 "/>
<path style=" stroke:none;fill-rule:nonzero;fill:rgb(100%,100%,100%);fill-opacity:1;" d="M 17.351562 11.289062 L 17.195312 11.421875 L 25.769531 24.425781 L 27.636719 25.695312 L 26.792969 23.386719 Z M 17.351562 11.289062 "/>
<path style=" stroke:none;fill-rule:nonzero;fill:rgb(100%,100%,100%);fill-opacity:1;" d="M 26.808594 21.171875 L 28.394531 21.808594 L 27.644531 19.890625 L 17.800781 10.800781 L 17.613281 11.015625 Z M 26.808594 21.171875 "/>
<path style=" stroke:none;fill-rule:nonzero;fill:rgb(100%,100%,100%);fill-opacity:1;" d="M 27.078125 17.371094 L 28.574219 17.609375 L 27.550781 16.109375 L 18.113281 10.28125 C 18.070312 10.371094 18.015625 10.460938 17.964844 10.546875 Z M 27.078125 17.371094 "/>
<path style=" stroke:none;fill-rule:nonzero;fill:rgb(100%,100%,100%);fill-opacity:1;" d="M 26.621094 14.175781 L 28.296875 14.265625 L 27.085938 13.074219 L 18.339844 9.75 C 18.339844 9.847656 18.277344 9.929688 18.25 10.011719 Z M 26.621094 14.175781 "/>
<path style=" stroke:none;fill-rule:nonzero;fill:rgb(100%,100%,100%);fill-opacity:1;" d="M 27.488281 11.191406 L 26.1875 10.371094 L 18.464844 9.121094 C 18.464844 9.210938 18.464844 9.292969 18.429688 9.375 L 26.023438 11.476562 Z M 27.488281 11.191406 "/>
<path style=" stroke:none;fill-rule:nonzero;fill:rgb(100%,100%,100%);fill-opacity:1;" d="M 25.398438 9 L 26.421875 8.574219 L 25.398438 8.183594 L 18.472656 8.488281 C 18.472656 8.566406 18.472656 8.640625 18.472656 8.707031 Z M 25.398438 9 "/>
<path style=" stroke:none;fill-rule:nonzero;fill:rgb(100%,100%,100%);fill-opacity:1;" d="M 23.976562 6.613281 L 18.367188 7.835938 C 18.367188 7.921875 18.40625 8.003906 18.429688 8.101562 L 24.171875 7.5 L 25.234375 6.898438 Z M 23.976562 6.613281 "/>
<path style=" stroke:none;fill-rule:nonzero;fill:rgb(100%,100%,100%);fill-opacity:1;" d="M 22.769531 5.175781 L 18.152344 7.238281 L 18.242188 7.449219 L 23.097656 5.949219 L 24.074219 5.175781 Z M 22.769531 5.175781 "/>
<path style=" stroke:none;fill-rule:nonzero;fill:rgb(100%,100%,100%);fill-opacity:1;" d="M 21.738281 3.921875 L 17.808594 6.675781 L 17.933594 6.855469 L 22.199219 4.648438 L 22.640625 3.898438 Z M 21.738281 3.921875 "/>
<path style=" stroke:none;fill-rule:nonzero;fill:rgb(100%,100%,100%);fill-opacity:1;" d="M 20.398438 3 L 17.414062 6.1875 L 17.570312 6.34375 L 21.058594 3.628906 L 21.320312 2.78125 Z M 20.398438 3 "/>
<path style=" stroke:none;fill-rule:nonzero;fill:rgb(100%,100%,100%);fill-opacity:1;" d="M 17.046875 5.910156 L 19.832031 2.648438 L 19.960938 1.710938 L 19.117188 2.109375 L 16.875 5.765625 Z M 17.046875 5.910156 "/>
<path style=" stroke:none;fill-rule:nonzero;fill:rgb(100%,100%,100%);fill-opacity:1;" d="M 16.222656 5.46875 L 16.433594 5.550781 L 18.519531 1.800781 L 18.441406 0.90625 L 17.695312 1.417969 Z M 16.222656 5.46875 "/>
<path style=" stroke:none;fill-rule:nonzero;fill:rgb(100%,100%,100%);fill-opacity:1;" d="M 15.753906 5.316406 L 16.972656 1.230469 L 16.746094 0.34375 L 16.136719 1.011719 L 15.507812 5.25 Z M 15.753906 5.316406 "/>
<path style=" stroke:none;fill-rule:nonzero;fill:rgb(100%,100%,100%);fill-opacity:1;" d="M 12.75 36.105469 C 13.085938 35.859375 13.386719 35.574219 13.648438 35.25 C 13.488281 35.054688 13.378906 34.824219 13.328125 34.574219 C 13.183594 34.703125 13.019531 34.835938 12.839844 34.972656 C 12.792969 35.007812 12.730469 35.007812 12.683594 34.972656 C 12.503906 34.835938 12.347656 34.710938 12.199219 34.574219 C 12.144531 34.824219 12.035156 35.054688 11.878906 35.25 C 12.128906 35.570312 12.425781 35.859375 12.75 36.105469 Z M 12.75 36.105469 "/>
<path style=" stroke:none;fill-rule:nonzero;fill:rgb(100%,100%,100%);fill-opacity:1;" d="M 7.46875 35.113281 C 7.746094 35.496094 8.082031 35.832031 8.464844 36.105469 C 8.8125 35.863281 9.132812 35.578125 9.40625 35.25 C 9.246094 35.054688 9.136719 34.824219 9.082031 34.574219 C 8.941406 34.703125 8.777344 34.835938 8.597656 34.972656 C 8.550781 35.007812 8.488281 35.007812 8.441406 34.972656 C 8.261719 34.835938 8.097656 34.710938 7.957031 34.574219 C 7.804688 34.75 7.625 34.898438 7.425781 35.011719 L 7.492188 35.101562 Z M 7.46875 35.113281 "/>
<path style=" stroke:none;fill-rule:nonzero;fill:rgb(100%,100%,100%);fill-opacity:1;" d="M 11.953125 34.5 C 11.953125 34.4375 11.9375 34.375 11.90625 34.320312 L 11.511719 34.320312 C 11.480469 34.375 11.464844 34.4375 11.464844 34.5 C 11.5 34.695312 11.585938 34.878906 11.710938 35.03125 C 11.835938 34.878906 11.917969 34.695312 11.953125 34.5 Z M 11.953125 34.5 "/>
<path style=" stroke:none;fill-rule:nonzero;fill:rgb(100%,100%,100%);fill-opacity:1;" d="M 14.058594 34.5 C 14.058594 34.4375 14.042969 34.375 14.011719 34.320312 L 13.617188 34.320312 C 13.585938 34.375 13.570312 34.4375 13.574219 34.5 C 13.609375 34.695312 13.691406 34.878906 13.820312 35.03125 C 13.941406 34.878906 14.023438 34.695312 14.058594 34.5 Z M 14.058594 34.5 "/>
<path style=" stroke:none;fill-rule:nonzero;fill:rgb(100%,100%,100%);fill-opacity:1;" d="M 9.808594 34.5 C 9.808594 34.4375 9.792969 34.375 9.761719 34.320312 L 9.367188 34.320312 C 9.335938 34.375 9.320312 34.4375 9.324219 34.5 C 9.359375 34.695312 9.441406 34.878906 9.570312 35.03125 C 9.691406 34.878906 9.773438 34.695312 9.808594 34.5 Z M 9.808594 34.5 "/>
<path style=" stroke:none;fill-rule:nonzero;fill:rgb(100%,100%,100%);fill-opacity:1;" d="M 10.621094 36.105469 C 10.960938 35.863281 11.265625 35.574219 11.527344 35.25 C 11.367188 35.054688 11.257812 34.824219 11.203125 34.574219 C 11.03125 34.734375 10.859375 34.859375 10.71875 34.964844 C 10.671875 35 10.609375 35 10.5625 34.964844 C 10.382812 34.828125 10.226562 34.703125 10.078125 34.566406 C 10.011719 34.820312 9.886719 35.054688 9.710938 35.25 C 9.976562 35.574219 10.28125 35.863281 10.621094 36.105469 Z M 10.621094 36.105469 "/>
<path style=" stroke:none;fill-rule:nonzero;fill:rgb(100%,100%,100%);fill-opacity:1;" d="M 14.871094 36.105469 C 15.210938 35.863281 15.515625 35.574219 15.777344 35.25 C 15.617188 35.054688 15.507812 34.824219 15.457031 34.574219 C 15.285156 34.734375 15.113281 34.859375 14.96875 34.964844 C 14.921875 35 14.859375 35 14.8125 34.964844 C 14.632812 34.828125 14.476562 34.703125 14.328125 34.566406 C 14.273438 34.816406 14.164062 35.046875 14.007812 35.242188 C 14.257812 35.566406 14.546875 35.855469 14.871094 36.105469 Z M 14.871094 36.105469 "/>
<path style=" stroke:none;fill-rule:nonzero;fill:rgb(100%,100%,100%);fill-opacity:1;" d="M 21.246094 36.105469 C 21.625 35.832031 21.960938 35.496094 22.238281 35.113281 L 22.238281 35.070312 L 22.304688 34.964844 C 22.105469 34.855469 21.929688 34.707031 21.78125 34.53125 C 21.632812 34.664062 21.46875 34.800781 21.28125 34.933594 C 21.234375 34.972656 21.171875 34.972656 21.125 34.933594 C 20.984375 34.828125 20.8125 34.695312 20.640625 34.546875 C 20.585938 34.792969 20.476562 35.023438 20.316406 35.21875 C 20.585938 35.554688 20.898438 35.855469 21.246094 36.105469 Z M 21.246094 36.105469 "/>
<path style=" stroke:none;fill-rule:nonzero;fill:rgb(100%,100%,100%);fill-opacity:1;" d="M 20.429688 34.5 C 20.429688 34.4375 20.414062 34.375 20.386719 34.320312 L 19.988281 34.320312 C 19.960938 34.375 19.945312 34.4375 19.945312 34.5 C 19.980469 34.695312 20.066406 34.878906 20.191406 35.03125 C 20.316406 34.878906 20.398438 34.695312 20.429688 34.5 Z M 20.429688 34.5 "/>
<path style=" stroke:none;fill-rule:nonzero;fill:rgb(100%,100%,100%);fill-opacity:1;" d="M 23.410156 35.414062 L 22.910156 35.25 C 22.910156 35.25 22.738281 35.175781 22.574219 35.085938 L 22.492188 35.203125 L 22.492188 35.25 C 22.175781 35.679688 21.792969 36.054688 21.355469 36.359375 C 21.308594 36.394531 21.246094 36.394531 21.199219 36.359375 C 20.820312 36.105469 20.472656 35.804688 20.167969 35.460938 C 19.882812 35.804688 19.558594 36.113281 19.199219 36.375 C 19.152344 36.410156 19.085938 36.410156 19.039062 36.375 C 18.675781 36.113281 18.34375 35.804688 18.054688 35.460938 C 17.765625 35.804688 17.433594 36.113281 17.070312 36.375 C 17.023438 36.410156 16.957031 36.410156 16.910156 36.375 C 16.546875 36.113281 16.214844 35.804688 15.925781 35.460938 C 15.636719 35.804688 15.304688 36.113281 14.941406 36.375 C 14.894531 36.410156 14.828125 36.410156 14.78125 36.375 C 14.417969 36.113281 14.085938 35.804688 13.796875 35.460938 C 13.507812 35.804688 13.175781 36.113281 12.8125 36.375 C 12.765625 36.410156 12.699219 36.410156 12.652344 36.375 C 12.289062 36.113281 11.957031 35.804688 11.667969 35.460938 C 11.378906 35.804688 11.046875 36.113281 10.683594 36.375 C 10.636719 36.410156 10.570312 36.410156 10.523438 36.375 C 10.160156 36.113281 9.828125 35.804688 9.539062 35.460938 C 9.25 35.804688 8.917969 36.113281 8.554688 36.375 C 8.507812 36.410156 8.441406 36.410156 8.394531 36.375 C 7.96875 36.0625 7.597656 35.683594 7.289062 35.25 L 7.289062 35.203125 L 7.214844 35.09375 C 7.027344 35.191406 6.886719 35.257812 6.886719 35.257812 L 6.402344 35.40625 C 4.453125 36.074219 3.285156 36.996094 2.988281 38.109375 L 26.839844 38.109375 C 26.503906 36.996094 25.34375 36.074219 23.410156 35.414062 Z M 23.410156 35.414062 "/>
<path style=" stroke:none;fill-rule:nonzero;fill:rgb(100%,100%,100%);fill-opacity:1;" d="M 16.179688 34.5 C 16.179688 34.4375 16.164062 34.375 16.136719 34.320312 L 15.738281 34.320312 C 15.707031 34.375 15.6875 34.4375 15.6875 34.5 C 15.722656 34.695312 15.808594 34.878906 15.933594 35.03125 C 16.058594 34.878906 16.144531 34.695312 16.179688 34.5 Z M 16.179688 34.5 "/>
<path style=" stroke:none;fill-rule:nonzero;fill:rgb(100%,100%,100%);fill-opacity:1;" d="M 17 36.105469 C 17.347656 35.863281 17.660156 35.574219 17.925781 35.25 C 17.769531 35.054688 17.660156 34.824219 17.605469 34.574219 C 17.464844 34.703125 17.300781 34.835938 17.121094 34.972656 C 17.074219 35.007812 17.011719 35.007812 16.964844 34.972656 C 16.785156 34.835938 16.628906 34.710938 16.480469 34.574219 C 16.425781 34.824219 16.316406 35.054688 16.15625 35.25 C 16.402344 35.570312 16.683594 35.859375 17 36.105469 Z M 17 36.105469 "/>
<path style=" stroke:none;fill-rule:nonzero;fill:rgb(100%,100%,100%);fill-opacity:1;" d="M 18.308594 34.5 C 18.308594 34.4375 18.292969 34.375 18.265625 34.320312 L 17.867188 34.320312 C 17.839844 34.375 17.824219 34.4375 17.824219 34.5 C 17.859375 34.695312 17.941406 34.878906 18.070312 35.03125 C 18.195312 34.878906 18.277344 34.695312 18.308594 34.5 Z M 18.308594 34.5 "/>
<path style=" stroke:none;fill-rule:nonzero;fill:rgb(100%,100%,100%);fill-opacity:1;" d="M 19.121094 36.105469 C 19.460938 35.863281 19.765625 35.574219 20.027344 35.25 C 19.867188 35.054688 19.757812 34.824219 19.707031 34.574219 C 19.5625 34.703125 19.398438 34.835938 19.21875 34.972656 C 19.175781 35.007812 19.109375 35.007812 19.0625 34.972656 C 18.882812 34.835938 18.726562 34.710938 18.578125 34.574219 C 18.523438 34.824219 18.414062 35.054688 18.257812 35.25 C 18.507812 35.570312 18.796875 35.859375 19.121094 36.105469 Z M 19.121094 36.105469 "/>
<path style=" stroke:none;fill-rule:nonzero;fill:rgb(100%,100%,100%);fill-opacity:1;" d="M 6.355469 42.203125 C 9.121094 43.015625 11.992188 43.390625 14.871094 43.3125 C 17.753906 43.390625 20.628906 43.015625 23.394531 42.203125 C 25.34375 41.535156 26.511719 40.636719 26.808594 39.523438 L 2.988281 39.523438 C 3.265625 40.628906 4.421875 41.542969 6.355469 42.203125 Z M 6.355469 42.203125 "/>
<path style=" stroke:none;fill-rule:nonzero;fill:rgb(100%,100%,100%);fill-opacity:1;" d="M 2.882812 39.148438 C 2.859375 38.964844 2.859375 38.773438 2.882812 38.585938 L 26.890625 38.585938 C 26.914062 38.773438 26.914062 38.964844 26.890625 39.148438 Z M 2.882812 39.148438 "/>
<path style=" stroke:none;fill-rule:nonzero;fill:rgb(100%,100%,100%);fill-opacity:1;" d="M 1.210938 36.5625 C 1.679688 36.605469 2.070312 36.953125 2.167969 37.417969 C 2.246094 37.691406 2.222656 37.988281 2.105469 38.25 C 2.007812 38.46875 1.820312 38.632812 1.589844 38.699219 C 1.527344 38.707031 1.460938 38.707031 1.398438 38.699219 C 0.9375 38.660156 0.550781 38.332031 0.441406 37.882812 C 0.363281 37.601562 0.386719 37.304688 0.507812 37.042969 C 0.605469 36.824219 0.792969 36.660156 1.023438 36.59375 C 1.085938 36.585938 1.152344 36.585938 1.21875 36.59375 M 1.21875 36.195312 C 1.121094 36.195312 1.019531 36.207031 0.925781 36.234375 C 0.210938 36.484375 -0.171875 37.261719 0.0585938 37.988281 C 0.210938 38.621094 0.75 39.085938 1.398438 39.136719 C 1.496094 39.136719 1.59375 39.121094 1.6875 39.097656 C 2.414062 38.84375 2.796875 38.046875 2.546875 37.320312 C 2.398438 36.6875 1.855469 36.222656 1.210938 36.171875 Z M 1.21875 36.195312 "/>
<path style=" stroke:none;fill-rule:nonzero;fill:rgb(100%,100%,100%);fill-opacity:1;" d="M 1.972656 39.128906 C 2.011719 39.121094 2.050781 39.121094 2.089844 39.128906 C 2.226562 39.210938 2.316406 39.355469 2.324219 39.515625 C 2.355469 39.808594 2.308594 40.105469 2.179688 40.371094 C 2.039062 40.753906 1.710938 41.039062 1.316406 41.121094 C 1.273438 41.128906 1.234375 41.128906 1.195312 41.121094 C 1.058594 41.039062 0.972656 40.894531 0.964844 40.734375 C 0.929688 40.441406 0.980469 40.144531 1.105469 39.878906 C 1.246094 39.496094 1.574219 39.210938 1.972656 39.128906 M 1.972656 38.730469 C 1.40625 38.816406 0.933594 39.207031 0.746094 39.75 C 0.410156 40.5 0.539062 41.296875 1.03125 41.519531 C 1.121094 41.558594 1.21875 41.582031 1.316406 41.578125 C 1.878906 41.496094 2.347656 41.105469 2.539062 40.566406 C 2.875 39.816406 2.75 39.023438 2.257812 38.796875 C 2.167969 38.757812 2.070312 38.738281 1.972656 38.738281 Z M 1.972656 38.730469 "/>
<path style=" stroke:none;fill-rule:nonzero;fill:rgb(100%,100%,100%);fill-opacity:1;" d="M 2.597656 38.871094 C 2.597656 39.253906 2.292969 39.5625 1.914062 39.5625 C 1.53125 39.5625 1.226562 39.253906 1.226562 38.871094 C 1.226562 38.492188 1.53125 38.183594 1.914062 38.183594 C 2.292969 38.183594 2.597656 38.492188 2.597656 38.871094 Z M 2.597656 38.871094 "/>
<path style=" stroke:none;fill-rule:nonzero;fill:rgb(100%,100%,100%);fill-opacity:1;" d="M 2.464844 39.824219 L 2.726562 39.824219 L 2.726562 41.96875 L 2.464844 41.96875 Z M 2.464844 39.824219 "/>
<path style=" stroke:none;fill-rule:nonzero;fill:rgb(100%,100%,100%);fill-opacity:1;" d="M 3.25 42.359375 C 3.289062 42.320312 3.308594 42.265625 3.308594 42.210938 C 3.308594 42.164062 3.292969 42.121094 3.265625 42.082031 L 2.59375 41.25 L 1.925781 42.097656 C 1.894531 42.136719 1.875 42.1875 1.875 42.238281 C 1.875 42.296875 1.894531 42.347656 1.933594 42.390625 Z M 3.25 42.359375 "/>
<path style=" stroke:none;fill-rule:nonzero;fill:rgb(100%,100%,100%);fill-opacity:1;" d="M 1.875 42.1875 L 3.308594 42.1875 L 3.308594 45 L 1.875 45 Z M 1.875 42.1875 "/>
<path style=" stroke:none;fill-rule:nonzero;fill:rgb(100%,100%,100%);fill-opacity:1;" d="M 28.558594 36.5625 C 28.621094 36.554688 28.6875 36.554688 28.75 36.5625 C 28.980469 36.628906 29.167969 36.792969 29.265625 37.011719 C 29.390625 37.273438 29.414062 37.574219 29.335938 37.851562 C 29.25 38.328125 28.863281 38.6875 28.386719 38.738281 C 28.320312 38.746094 28.253906 38.746094 28.191406 38.738281 C 27.941406 38.671875 27.734375 38.492188 27.636719 38.25 C 27.515625 37.988281 27.492188 37.6875 27.570312 37.410156 C 27.667969 36.945312 28.054688 36.597656 28.527344 36.554688 M 28.527344 36.15625 C 27.882812 36.207031 27.339844 36.671875 27.191406 37.304688 C 26.941406 38.035156 27.324219 38.828125 28.050781 39.082031 C 28.144531 39.109375 28.242188 39.121094 28.339844 39.121094 C 28.988281 39.070312 29.527344 38.605469 29.679688 37.972656 C 29.925781 37.242188 29.542969 36.449219 28.820312 36.195312 C 28.722656 36.167969 28.625 36.15625 28.527344 36.15625 Z M 28.527344 36.15625 "/>
<path style=" stroke:none;fill-rule:nonzero;fill:rgb(100%,100%,100%);fill-opacity:1;" d="M 27.796875 39.128906 C 28.191406 39.210938 28.519531 39.496094 28.660156 39.878906 C 28.921875 40.449219 28.828125 41.011719 28.574219 41.121094 C 28.53125 41.132812 28.492188 41.132812 28.453125 41.121094 C 28.054688 41.039062 27.726562 40.753906 27.585938 40.371094 C 27.460938 40.105469 27.410156 39.808594 27.445312 39.515625 C 27.453125 39.355469 27.539062 39.210938 27.675781 39.128906 C 27.714844 39.121094 27.757812 39.121094 27.796875 39.128906 M 27.796875 38.730469 C 27.699219 38.730469 27.601562 38.75 27.511719 38.789062 C 27.019531 39.015625 26.890625 39.800781 27.226562 40.558594 C 27.417969 41.097656 27.890625 41.488281 28.453125 41.574219 C 28.550781 41.574219 28.648438 41.554688 28.738281 41.511719 C 29.230469 41.289062 29.355469 40.5 29.019531 39.742188 C 28.832031 39.203125 28.359375 38.8125 27.796875 38.730469 Z M 27.796875 38.730469 "/>
<path style=" stroke:none;fill-rule:nonzero;fill:rgb(100%,100%,100%);fill-opacity:1;" d="M 28.542969 38.871094 C 28.542969 39.253906 28.234375 39.5625 27.855469 39.5625 C 27.476562 39.5625 27.167969 39.253906 27.167969 38.871094 C 27.167969 38.492188 27.476562 38.183594 27.855469 38.183594 C 28.234375 38.183594 28.542969 38.492188 28.542969 38.871094 Z M 28.542969 38.871094 "/>
<path style=" stroke:none;fill-rule:nonzero;fill:rgb(100%,100%,100%);fill-opacity:1;" d="M 27.039062 39.824219 L 27.300781 39.824219 L 27.300781 41.96875 L 27.039062 41.96875 Z M 27.039062 39.824219 "/>
<path style=" stroke:none;fill-rule:nonzero;fill:rgb(100%,100%,100%);fill-opacity:1;" d="M 26.519531 42.359375 C 26.480469 42.320312 26.457031 42.265625 26.457031 42.210938 C 26.460938 42.164062 26.476562 42.121094 26.503906 42.082031 L 27.175781 41.25 L 27.839844 42.097656 C 27.871094 42.136719 27.890625 42.1875 27.890625 42.238281 C 27.890625 42.296875 27.871094 42.347656 27.832031 42.390625 Z M 26.519531 42.359375 "/>
<path style=" stroke:none;fill-rule:nonzero;fill:rgb(100%,100%,100%);fill-opacity:1;" d="M 27.890625 45 L 26.457031 45 L 26.457031 42.1875 L 27.890625 42.1875 Z M 27.890625 45 "/>
<path style=" stroke:none;fill-rule:nonzero;fill:rgb(100%,100%,100%);fill-opacity:1;" d="M 17.757812 28.605469 C 17.757812 29.09375 17.945312 29.566406 18.277344 29.925781 C 18.632812 30.300781 18.851562 30.785156 18.898438 31.296875 L 10.839844 31.296875 C 10.890625 30.785156 11.105469 30.300781 11.457031 29.925781 C 11.792969 29.566406 11.980469 29.09375 11.980469 28.605469 L 17.757812 28.605469 M 18.015625 28.34375 L 11.71875 28.34375 L 11.71875 28.550781 C 11.730469 28.992188 11.570312 29.414062 11.273438 29.738281 C 10.804688 30.226562 10.539062 30.875 10.523438 31.550781 L 19.183594 31.550781 C 19.167969 30.875 18.902344 30.226562 18.4375 29.738281 C 18.136719 29.414062 17.976562 28.992188 17.988281 28.550781 L 17.988281 28.34375 Z M 18.015625 28.34375 "/>
<path style=" stroke:none;fill-rule:nonzero;fill:rgb(100%,100%,100%);fill-opacity:1;" d="M 14.878906 7.988281 C 15.183594 8.011719 15.414062 8.273438 15.402344 8.578125 C 15.390625 8.882812 15.140625 9.125 14.835938 9.125 C 14.53125 9.125 14.28125 8.882812 14.269531 8.578125 C 14.257812 8.273438 14.488281 8.011719 14.789062 7.988281 L 14.859375 7.988281 M 14.941406 7.726562 L 14.789062 7.726562 C 14.347656 7.761719 14.011719 8.140625 14.027344 8.589844 C 14.046875 9.035156 14.414062 9.386719 14.859375 9.386719 C 15.300781 9.386719 15.667969 9.035156 15.6875 8.589844 C 15.703125 8.140625 15.367188 7.761719 14.925781 7.726562 Z M 14.941406 7.726562 "/>
<path style=" stroke:none;fill-rule:nonzero;fill:rgb(100%,100%,100%);fill-opacity:1;" d="M 15.117188 10.402344 L 15.117188 11.46875 C 15.117188 11.71875 15.132812 11.96875 15.164062 12.21875 L 15.703125 16.566406 L 14.035156 16.566406 L 14.582031 12.21875 C 14.582031 12.03125 14.625 11.519531 14.617188 11.46875 L 14.617188 10.402344 L 15.117188 10.402344 M 15.378906 10.140625 L 14.355469 10.140625 L 14.355469 11.476562 C 14.355469 11.542969 14.355469 12.039062 14.320312 12.226562 L 13.746094 16.867188 L 15.984375 16.867188 L 15.410156 12.226562 C 15.378906 11.976562 15.367188 11.726562 15.371094 11.476562 L 15.371094 10.140625 Z M 15.378906 10.140625 "/>
<path style=" stroke:none;fill-rule:nonzero;fill:rgb(100%,100%,100%);fill-opacity:1;" d="M 16.367188 21.839844 L 16.800781 23.894531 L 16.800781 23.976562 L 16.910156 24.140625 C 17.140625 24.492188 17.277344 24.894531 17.300781 25.3125 L 12.414062 25.3125 C 12.441406 24.894531 12.574219 24.492188 12.804688 24.140625 L 12.914062 23.96875 L 12.914062 23.886719 L 13.347656 21.839844 L 16.335938 21.839844 M 16.546875 21.578125 L 13.175781 21.578125 L 12.699219 23.828125 L 12.59375 23.984375 C 12.289062 24.457031 12.132812 25.007812 12.136719 25.566406 L 17.621094 25.566406 C 17.628906 25.011719 17.476562 24.46875 17.179688 24 L 17.074219 23.851562 L 16.597656 21.601562 Z M 16.546875 21.578125 "/>
<path style=" stroke:none;fill-rule:nonzero;fill:rgb(100%,100%,100%);fill-opacity:1;" d="M 15.722656 17.550781 C 15.71875 17.828125 15.789062 18.101562 15.925781 18.34375 L 15.925781 18.398438 C 16.027344 18.53125 16.097656 18.683594 16.136719 18.847656 L 16.136719 19.761719 L 13.574219 19.761719 L 13.574219 18.855469 C 13.609375 18.691406 13.675781 18.539062 13.773438 18.40625 L 13.8125 18.34375 C 13.949219 18.101562 14.019531 17.828125 14.011719 17.550781 L 15.730469 17.550781 M 15.984375 17.25 L 13.746094 17.25 L 13.746094 17.503906 C 13.753906 17.738281 13.699219 17.96875 13.585938 18.171875 C 13.453125 18.359375 13.359375 18.570312 13.3125 18.796875 L 13.3125 19.996094 L 16.433594 19.996094 L 16.433594 18.796875 C 16.386719 18.570312 16.289062 18.355469 16.148438 18.171875 C 16.039062 17.96875 15.984375 17.738281 15.992188 17.503906 L 15.992188 17.25 Z M 15.984375 17.25 "/>
<path style=" stroke:none;fill-rule:nonzero;fill:rgb(100%,100%,100%);fill-opacity:1;" d="M 15.367188 18.726562 C 15.367188 19.003906 15.140625 19.230469 14.863281 19.230469 C 14.589844 19.230469 14.363281 19.003906 14.363281 18.726562 C 14.363281 18.449219 14.589844 18.226562 14.863281 18.226562 C 15.140625 18.226562 15.367188 18.449219 15.367188 18.726562 Z M 15.367188 18.726562 "/>
<path style=" stroke:none;fill-rule:nonzero;fill:rgb(100%,100%,100%);fill-opacity:1;" d="M 15.367188 22.628906 C 15.367188 22.90625 15.140625 23.128906 14.863281 23.128906 C 14.589844 23.128906 14.363281 22.90625 14.363281 22.628906 C 14.363281 22.351562 14.589844 22.125 14.863281 22.125 C 15.140625 22.125 15.367188 22.351562 15.367188 22.628906 Z M 15.367188 22.628906 "/>
<path style=" stroke:none;fill-rule:nonzero;fill:rgb(100%,100%,100%);fill-opacity:1;" d="M 16.664062 20.625 C 16.714844 20.628906 16.75 20.667969 16.753906 20.714844 L 16.753906 20.765625 C 16.75 20.816406 16.714844 20.855469 16.664062 20.859375 L 13.078125 20.859375 C 13.03125 20.855469 12.992188 20.816406 12.988281 20.765625 L 12.988281 20.714844 C 12.992188 20.667969 13.03125 20.628906 13.078125 20.625 L 16.664062 20.625 M 16.664062 20.363281 L 13.078125 20.363281 C 12.886719 20.367188 12.734375 20.523438 12.730469 20.714844 L 12.730469 20.765625 C 12.734375 20.960938 12.886719 21.117188 13.078125 21.121094 L 16.664062 21.121094 C 16.859375 21.117188 17.011719 20.960938 17.015625 20.765625 L 17.015625 20.714844 C 17.011719 20.523438 16.859375 20.367188 16.664062 20.363281 Z M 16.664062 20.363281 "/>
<path style=" stroke:none;fill-rule:nonzero;fill:rgb(100%,100%,100%);fill-opacity:1;" d="M 14.117188 31.558594 L 11.390625 31.558594 L 11.347656 31.5 C 11.246094 31.382812 11.191406 31.234375 11.191406 31.078125 C 11.195312 30.9375 11.242188 30.804688 11.324219 30.691406 L 12.75 28.664062 L 14.191406 30.75 C 14.261719 30.855469 14.300781 30.976562 14.304688 31.101562 C 14.3125 31.242188 14.273438 31.382812 14.191406 31.5 Z M 11.511719 31.296875 L 13.992188 31.296875 C 14.03125 31.238281 14.050781 31.167969 14.050781 31.09375 C 14.046875 31.019531 14.023438 30.949219 13.984375 30.886719 L 12.75 29.136719 L 11.539062 30.855469 C 11.488281 30.925781 11.457031 31.007812 11.453125 31.09375 C 11.453125 31.167969 11.476562 31.238281 11.519531 31.296875 Z M 11.511719 31.296875 "/>
<path style=" stroke:none;fill-rule:nonzero;fill:rgb(100%,100%,100%);fill-opacity:1;" d="M 16.230469 31.558594 L 13.503906 31.558594 L 13.445312 31.5 C 13.34375 31.382812 13.289062 31.234375 13.289062 31.078125 C 13.292969 30.9375 13.339844 30.804688 13.421875 30.691406 L 14.851562 28.664062 L 16.320312 30.75 C 16.390625 30.855469 16.429688 30.976562 16.433594 31.101562 C 16.433594 31.257812 16.378906 31.40625 16.277344 31.523438 Z M 13.625 31.296875 L 16.105469 31.296875 C 16.144531 31.238281 16.164062 31.167969 16.164062 31.09375 C 16.164062 31.019531 16.140625 30.949219 16.097656 30.886719 L 14.863281 29.136719 L 13.65625 30.855469 C 13.601562 30.925781 13.570312 31.007812 13.566406 31.09375 C 13.566406 31.167969 13.585938 31.238281 13.625 31.296875 Z M 13.625 31.296875 "/>
<path style=" stroke:none;fill-rule:nonzero;fill:rgb(100%,100%,100%);fill-opacity:1;" d="M 18.347656 31.558594 L 15.613281 31.558594 L 15.574219 31.5 C 15.472656 31.382812 15.417969 31.234375 15.417969 31.078125 C 15.421875 30.9375 15.46875 30.804688 15.550781 30.691406 L 16.980469 28.664062 L 18.4375 30.75 C 18.503906 30.855469 18.542969 30.976562 18.546875 31.101562 C 18.546875 31.257812 18.492188 31.40625 18.390625 31.523438 Z M 15.738281 31.296875 L 18.21875 31.296875 C 18.257812 31.238281 18.277344 31.167969 18.277344 31.09375 C 18.277344 31.019531 18.253906 30.949219 18.210938 30.886719 L 16.980469 29.136719 L 15.769531 30.855469 C 15.714844 30.925781 15.683594 31.007812 15.679688 31.09375 C 15.679688 31.167969 15.699219 31.238281 15.738281 31.296875 Z M 15.738281 31.296875 "/>
<path style=" stroke:none;fill-rule:nonzero;fill:rgb(100%,100%,100%);fill-opacity:1;" d="M 11.488281 22.640625 C 11.605469 22.765625 11.679688 22.921875 11.699219 23.09375 C 11.679688 23.261719 11.605469 23.421875 11.488281 23.542969 L 11.488281 23.484375 C 11.433594 23.371094 11.402344 23.246094 11.40625 23.121094 C 11.402344 22.996094 11.429688 22.867188 11.488281 22.753906 L 11.488281 22.695312 M 11.203125 22.09375 C 11.253906 22.167969 11.28125 22.253906 11.285156 22.34375 C 11.289062 22.433594 11.261719 22.519531 11.203125 22.589844 C 11.035156 22.910156 11.035156 23.292969 11.203125 23.609375 C 11.261719 23.679688 11.289062 23.769531 11.285156 23.859375 C 11.28125 23.945312 11.253906 24.03125 11.203125 24.105469 C 11.304688 24.070312 11.394531 24.015625 11.464844 23.941406 C 11.761719 23.765625 11.945312 23.449219 11.945312 23.105469 C 11.945312 22.757812 11.761719 22.441406 11.464844 22.265625 C 11.394531 22.191406 11.304688 22.136719 11.203125 22.101562 Z M 11.203125 22.09375 "/>
<path style=" stroke:none;fill-rule:nonzero;fill:rgb(100%,100%,100%);fill-opacity:1;" d="M 12.699219 24 C 12.621094 23.566406 12.246094 23.253906 11.808594 23.25 L 11.808594 22.988281 C 12.359375 22.988281 12.832031 23.371094 12.953125 23.910156 Z M 12.699219 24 "/>
<path style=" stroke:none;fill-rule:nonzero;fill:rgb(100%,100%,100%);fill-opacity:1;" d="M 18.265625 22.640625 L 18.265625 22.703125 C 18.320312 22.8125 18.347656 22.9375 18.347656 23.0625 C 18.351562 23.191406 18.320312 23.316406 18.265625 23.429688 L 18.265625 23.488281 C 18.144531 23.367188 18.070312 23.210938 18.054688 23.039062 C 18.070312 22.871094 18.144531 22.710938 18.265625 22.589844 M 18.539062 22.050781 C 18.441406 22.082031 18.351562 22.140625 18.277344 22.214844 C 17.980469 22.386719 17.800781 22.707031 17.800781 23.050781 C 17.800781 23.394531 17.980469 23.714844 18.277344 23.886719 C 18.351562 23.960938 18.441406 24.019531 18.539062 24.050781 C 18.492188 23.976562 18.464844 23.894531 18.457031 23.804688 C 18.457031 23.714844 18.484375 23.628906 18.539062 23.558594 C 18.710938 23.238281 18.710938 22.855469 18.539062 22.539062 C 18.484375 22.46875 18.457031 22.378906 18.457031 22.289062 C 18.464844 22.203125 18.492188 22.117188 18.539062 22.042969 Z M 18.539062 22.050781 "/>
<path style=" stroke:none;fill-rule:nonzero;fill:rgb(100%,100%,100%);fill-opacity:1;" d="M 17.070312 23.941406 L 16.816406 23.871094 C 16.949219 23.363281 17.402344 23.007812 17.925781 23.003906 L 17.925781 23.25 C 17.519531 23.257812 17.167969 23.542969 17.070312 23.941406 Z M 17.070312 23.941406 "/>
<path style=" stroke:none;fill-rule:nonzero;fill:rgb(100%,100%,100%);fill-opacity:1;" d="M 12.207031 18.105469 C 12.324219 18.226562 12.398438 18.386719 12.414062 18.554688 C 12.398438 18.722656 12.324219 18.882812 12.207031 19.003906 L 12.207031 18.945312 C 12.148438 18.832031 12.121094 18.703125 12.125 18.578125 C 12.121094 18.449219 12.148438 18.324219 12.207031 18.210938 L 12.207031 18.148438 M 11.953125 17.566406 C 12 17.640625 12.027344 17.722656 12.035156 17.8125 C 12.035156 17.902344 12.007812 17.988281 11.953125 18.058594 C 11.78125 18.378906 11.78125 18.761719 11.953125 19.078125 C 12.007812 19.148438 12.035156 19.238281 12.035156 19.328125 C 12.027344 19.414062 12 19.5 11.953125 19.574219 C 12.050781 19.542969 12.140625 19.484375 12.214844 19.410156 C 12.511719 19.238281 12.691406 18.917969 12.691406 18.574219 C 12.691406 18.230469 12.511719 17.910156 12.214844 17.738281 C 12.140625 17.664062 12.050781 17.605469 11.953125 17.574219 Z M 11.953125 17.566406 "/>
<path style=" stroke:none;fill-rule:nonzero;fill:rgb(100%,100%,100%);fill-opacity:1;" d="M 13.3125 19.191406 C 13.144531 18.914062 12.84375 18.746094 12.519531 18.75 L 12.519531 18.488281 C 12.9375 18.488281 13.328125 18.714844 13.535156 19.078125 Z M 13.3125 19.191406 "/>
<path style=" stroke:none;fill-rule:nonzero;fill:rgb(100%,100%,100%);fill-opacity:1;" d="M 17.53125 18.113281 L 17.53125 18.171875 C 17.589844 18.285156 17.617188 18.414062 17.613281 18.539062 C 17.617188 18.667969 17.589844 18.792969 17.53125 18.90625 L 17.53125 18.96875 C 17.414062 18.84375 17.339844 18.6875 17.324219 18.515625 C 17.339844 18.347656 17.414062 18.1875 17.53125 18.066406 M 17.808594 17.527344 C 17.710938 17.5625 17.621094 17.617188 17.546875 17.691406 C 17.25 17.867188 17.066406 18.183594 17.066406 18.527344 C 17.066406 18.875 17.25 19.191406 17.546875 19.363281 C 17.621094 19.441406 17.710938 19.496094 17.808594 19.53125 C 17.761719 19.457031 17.734375 19.371094 17.726562 19.28125 C 17.722656 19.191406 17.753906 19.105469 17.808594 19.035156 C 17.976562 18.714844 17.976562 18.332031 17.808594 18.015625 C 17.753906 17.945312 17.722656 17.855469 17.726562 17.765625 C 17.734375 17.679688 17.761719 17.59375 17.808594 17.519531 Z M 17.808594 17.527344 "/>
<path style=" stroke:none;fill-rule:nonzero;fill:rgb(100%,100%,100%);fill-opacity:1;" d="M 16.433594 19.191406 L 16.210938 19.058594 C 16.410156 18.707031 16.777344 18.488281 17.179688 18.472656 L 17.179688 18.75 C 16.875 18.761719 16.59375 18.929688 16.433594 19.191406 Z M 16.433594 19.191406 "/>
<path style=" stroke:none;fill-rule:nonzero;fill:rgb(100%,100%,100%);fill-opacity:1;" d="M 10.0625 26.085938 C 10.179688 26.207031 10.253906 26.367188 10.269531 26.535156 C 10.253906 26.703125 10.179688 26.863281 10.0625 26.984375 L 10.0625 26.925781 C 10 26.8125 9.96875 26.6875 9.972656 26.558594 C 9.96875 26.429688 9.996094 26.304688 10.054688 26.191406 L 10.054688 26.128906 M 9.777344 25.589844 C 9.824219 25.664062 9.855469 25.75 9.859375 25.835938 C 9.863281 25.925781 9.832031 26.015625 9.777344 26.085938 C 9.609375 26.402344 9.609375 26.785156 9.777344 27.105469 C 9.832031 27.175781 9.863281 27.261719 9.859375 27.351562 C 9.855469 27.441406 9.824219 27.527344 9.777344 27.601562 C 9.878906 27.566406 9.964844 27.511719 10.039062 27.433594 C 10.335938 27.261719 10.519531 26.941406 10.519531 26.597656 C 10.519531 26.253906 10.335938 25.9375 10.039062 25.761719 C 9.964844 25.6875 9.878906 25.632812 9.777344 25.597656 Z M 9.777344 25.589844 "/>
<path style=" stroke:none;fill-rule:nonzero;fill:rgb(100%,100%,100%);fill-opacity:1;" d="M 11.273438 27.480469 C 11.191406 27.046875 10.816406 26.730469 10.375 26.730469 L 10.375 26.46875 C 10.953125 26.46875 11.445312 26.890625 11.535156 27.464844 Z M 11.273438 27.480469 "/>
<path style=" stroke:none;fill-rule:nonzero;fill:rgb(100%,100%,100%);fill-opacity:1;" d="M 19.707031 26.085938 L 19.707031 26.144531 C 19.765625 26.257812 19.796875 26.382812 19.796875 26.511719 C 19.800781 26.640625 19.769531 26.765625 19.714844 26.878906 L 19.714844 26.941406 C 19.59375 26.816406 19.519531 26.660156 19.503906 26.488281 C 19.519531 26.320312 19.59375 26.160156 19.714844 26.039062 M 19.988281 25.5 C 19.890625 25.535156 19.800781 25.589844 19.726562 25.664062 C 19.429688 25.839844 19.25 26.15625 19.25 26.5 C 19.25 26.847656 19.429688 27.164062 19.726562 27.335938 C 19.800781 27.414062 19.890625 27.46875 19.988281 27.503906 C 19.941406 27.429688 19.914062 27.34375 19.90625 27.253906 C 19.90625 27.164062 19.933594 27.078125 19.988281 27.007812 C 20.160156 26.6875 20.160156 26.304688 19.988281 25.988281 C 19.933594 25.917969 19.90625 25.828125 19.90625 25.738281 C 19.914062 25.652344 19.941406 25.566406 19.988281 25.492188 Z M 19.988281 25.5 "/>
<path style=" stroke:none;fill-rule:nonzero;fill:rgb(100%,100%,100%);fill-opacity:1;" d="M 18.496094 27.480469 L 18.234375 27.441406 C 18.324219 26.859375 18.832031 26.429688 19.421875 26.445312 L 19.421875 26.707031 C 18.964844 26.695312 18.566406 27.023438 18.496094 27.480469 Z M 18.496094 27.480469 "/>
<path style=" stroke:none;fill-rule:nonzero;fill:rgb(100%,100%,100%);fill-opacity:1;" d="M 17.734375 26.25 C 18.105469 26.25 18.40625 26.550781 18.40625 26.925781 C 18.40625 27.296875 18.105469 27.601562 17.734375 27.601562 L 11.953125 27.601562 C 11.582031 27.601562 11.28125 27.296875 11.28125 26.925781 C 11.28125 26.550781 11.582031 26.25 11.953125 26.25 L 17.710938 26.25 M 17.710938 25.988281 L 11.953125 25.988281 C 11.4375 25.988281 11.019531 26.40625 11.019531 26.925781 C 11.019531 27.441406 11.4375 27.863281 11.953125 27.863281 L 17.726562 27.863281 C 18.242188 27.863281 18.660156 27.441406 18.660156 26.925781 C 18.660156 26.40625 18.242188 25.988281 17.726562 25.988281 Z M 17.710938 25.988281 "/>
<path style=" stroke:none;fill-rule:nonzero;fill:rgb(100%,100%,100%);fill-opacity:1;" d="M 16.03125 27.734375 L 16.457031 27.734375 L 17.433594 26.960938 L 16.457031 26.199219 L 16.039062 26.199219 L 17.007812 26.960938 Z M 16.03125 27.734375 "/>
<path style=" stroke:none;fill-rule:nonzero;fill:rgb(100%,100%,100%);fill-opacity:1;" d="M 13.753906 27.734375 L 12.773438 26.960938 L 13.753906 26.199219 L 13.328125 26.199219 L 12.355469 26.960938 L 13.328125 27.734375 Z M 13.753906 27.734375 "/>
<path style=" stroke:none;fill-rule:nonzero;fill:rgb(100%,100%,100%);fill-opacity:1;" d="M 15.394531 26.960938 C 15.394531 27.238281 15.171875 27.464844 14.894531 27.464844 C 14.617188 27.464844 14.394531 27.238281 14.394531 26.960938 C 14.394531 26.683594 14.617188 26.460938 14.894531 26.460938 C 15.171875 26.460938 15.394531 26.683594 15.394531 26.960938 Z M 15.394531 26.960938 "/>
<path style=" stroke:none;fill-rule:nonzero;fill:rgb(100%,100%,100%);fill-opacity:1;" d="M 19.039062 32.296875 C 19.410156 32.296875 19.714844 32.597656 19.714844 32.96875 C 19.714844 33.34375 19.410156 33.644531 19.039062 33.644531 L 10.667969 33.644531 C 10.296875 33.644531 9.996094 33.34375 9.996094 32.96875 C 9.996094 32.597656 10.296875 32.296875 10.667969 32.296875 L 19.039062 32.296875 M 19.039062 32.03125 L 10.675781 32.03125 C 10.160156 32.03125 9.742188 32.453125 9.742188 32.96875 C 9.742188 33.488281 10.160156 33.90625 10.675781 33.90625 L 19.0625 33.90625 C 19.578125 33.90625 19.996094 33.488281 19.996094 32.96875 C 19.996094 32.453125 19.578125 32.03125 19.0625 32.03125 Z M 19.039062 32.03125 "/>
<path style=" stroke:none;fill-rule:nonzero;fill:rgb(100%,100%,100%);fill-opacity:1;" d="M 16.933594 33.839844 L 17.351562 33.839844 L 18.457031 32.96875 L 17.433594 32.160156 L 17.015625 32.160156 L 18.039062 32.96875 Z M 16.933594 33.839844 "/>
<path style=" stroke:none;fill-rule:nonzero;fill:rgb(100%,100%,100%);fill-opacity:1;" d="M 15.882812 33.839844 L 16.300781 33.839844 L 17.40625 32.96875 L 16.382812 32.160156 L 15.964844 32.160156 L 16.988281 32.96875 Z M 15.882812 33.839844 "/>
<path style=" stroke:none;fill-rule:nonzero;fill:rgb(100%,100%,100%);fill-opacity:1;" d="M 13.855469 33.839844 L 12.75 32.96875 L 13.78125 32.160156 L 13.355469 32.160156 L 12.324219 32.96875 L 13.429688 33.839844 Z M 13.855469 33.839844 "/>
<path style=" stroke:none;fill-rule:nonzero;fill:rgb(100%,100%,100%);fill-opacity:1;" d="M 12.847656 33.839844 L 11.742188 32.96875 L 12.773438 32.160156 L 12.339844 32.160156 L 11.316406 32.96875 L 12.421875 33.839844 Z M 12.847656 33.839844 "/>
<path style=" stroke:none;fill-rule:nonzero;fill:rgb(100%,100%,100%);fill-opacity:1;" d="M 15.367188 32.96875 C 15.367188 33.246094 15.140625 33.472656 14.863281 33.472656 C 14.589844 33.472656 14.363281 33.246094 14.363281 32.96875 C 14.363281 32.691406 14.589844 32.46875 14.863281 32.46875 C 15.140625 32.46875 15.367188 32.691406 15.367188 32.96875 Z M 15.367188 32.96875 "/>
<path style=" stroke:none;fill-rule:nonzero;fill:rgb(100%,100%,100%);fill-opacity:1;" d="M 10.964844 32.96875 C 10.964844 33.246094 10.742188 33.472656 10.464844 33.472656 C 10.1875 33.472656 9.964844 33.246094 9.964844 32.96875 C 9.964844 32.691406 10.1875 32.46875 10.464844 32.46875 C 10.742188 32.46875 10.964844 32.691406 10.964844 32.96875 Z M 10.964844 32.96875 "/>
<path style=" stroke:none;fill-rule:nonzero;fill:rgb(100%,100%,100%);fill-opacity:1;" d="M 19.78125 32.96875 C 19.78125 33.246094 19.554688 33.472656 19.28125 33.472656 C 19.003906 33.472656 18.777344 33.246094 18.777344 32.96875 C 18.777344 32.691406 19.003906 32.46875 19.28125 32.46875 C 19.554688 32.46875 19.78125 32.691406 19.78125 32.96875 Z M 19.78125 32.96875 "/>
<path style=" stroke:none;fill-rule:nonzero;fill:rgb(100%,100%,100%);fill-opacity:1;" d="M 17.433594 25.3125 L 16.433594 25.3125 C 16.441406 25.253906 16.441406 25.195312 16.433594 25.140625 C 16.429688 25.019531 16.390625 24.90625 16.320312 24.808594 L 16.089844 24.515625 L 16.835938 23.585938 L 16.761719 23.25 L 15.941406 24.308594 L 14.871094 22.941406 L 13.8125 24.300781 L 12.9375 23.183594 L 12.847656 23.488281 L 13.648438 24.511719 L 13.445312 24.75 C 13.363281 24.855469 13.316406 24.984375 13.3125 25.117188 C 13.300781 25.175781 13.300781 25.234375 13.3125 25.289062 L 12.242188 25.289062 L 12.242188 25.550781 L 17.472656 25.550781 Z M 14 25.3125 L 13.617188 25.3125 C 13.582031 25.261719 13.558594 25.203125 13.558594 25.140625 C 13.5625 25.0625 13.589844 24.988281 13.640625 24.929688 L 13.804688 24.726562 L 13.992188 24.960938 C 14.03125 25.011719 14.054688 25.074219 14.058594 25.140625 C 14.058594 25.203125 14.035156 25.261719 14 25.3125 Z M 15.566406 24.773438 C 15.484375 24.878906 15.4375 25.007812 15.433594 25.140625 C 15.421875 25.195312 15.421875 25.253906 15.433594 25.3125 L 14.289062 25.3125 C 14.300781 25.253906 14.300781 25.195312 14.289062 25.140625 C 14.285156 25.019531 14.246094 24.90625 14.179688 24.808594 L 13.945312 24.515625 L 14.84375 23.363281 L 15.746094 24.515625 Z M 16.128906 25.3125 L 15.746094 25.3125 C 15.710938 25.261719 15.6875 25.203125 15.6875 25.140625 C 15.691406 25.0625 15.71875 24.988281 15.769531 24.929688 L 15.933594 24.726562 L 16.121094 24.960938 C 16.160156 25.011719 16.183594 25.074219 16.1875 25.140625 C 16.1875 25.203125 16.167969 25.261719 16.136719 25.3125 Z M 16.128906 25.3125 "/>
<path style=" stroke:none;fill-rule:nonzero;fill:rgb(100%,100%,100%);fill-opacity:1;" d="M 16.464844 28.492188 L 15.925781 29.25 L 15.386719 28.492188 L 15.074219 28.492188 L 15.925781 29.707031 L 16.785156 28.492188 Z M 16.464844 28.492188 "/>
<path style=" stroke:none;fill-rule:nonzero;fill:rgb(100%,100%,100%);fill-opacity:1;" d="M 14.351562 28.492188 L 13.8125 29.25 L 13.273438 28.492188 L 12.960938 28.492188 L 13.8125 29.707031 L 14.671875 28.492188 Z M 14.351562 28.492188 "/>
<path style=" stroke:none;fill-rule:nonzero;fill:rgb(100%,100%,100%);fill-opacity:1;" d="M 118.515625 19.898438 C 118.515625 19.949219 118.515625 21.742188 118.515625 21.742188 C 117.214844 21.167969 115.796875 20.910156 114.378906 20.992188 C 112.566406 21.136719 110.835938 21.804688 109.394531 22.921875 C 108.125 23.980469 107.441406 25.59375 107.566406 27.246094 C 107.5625 30.265625 109.945312 32.746094 112.953125 32.851562 L 123.960938 32.851562 L 123.960938 32.199219 C 122.976562 32.015625 122.234375 31.1875 122.167969 30.179688 L 122.167969 20.675781 C 122.167969 15.988281 117.734375 14.617188 114.960938 14.675781 C 112.949219 14.730469 111.003906 15.433594 109.417969 16.679688 L 111.347656 19.5 L 112.183594 18.953125 C 112.160156 18.304688 112.433594 17.683594 112.929688 17.265625 C 114.363281 16.15625 116.398438 16.3125 117.644531 17.632812 C 118.1875 18.261719 118.496094 19.0625 118.515625 19.898438 Z M 118.515625 28.148438 C 118.515625 29.339844 117.417969 30.546875 114.589844 30.546875 C 112.820312 30.410156 111.4375 28.960938 111.382812 27.179688 C 111.351562 26.238281 111.707031 25.328125 112.367188 24.660156 C 113.023438 23.988281 113.925781 23.621094 114.863281 23.640625 C 117.300781 23.640625 118.507812 24.9375 118.507812 25.890625 C 118.503906 25.835938 118.507812 27.75 118.507812 28.125 Z M 118.515625 28.148438 "/>
<path style=" stroke:none;fill-rule:nonzero;fill:rgb(100%,100%,100%);fill-opacity:1;" d="M 105.125 1.433594 L 105.125 21.261719 C 103.308594 22.253906 101.71875 25.011719 100.460938 26.675781 L 100.335938 6.226562 C 100.34375 5.242188 99.683594 4.382812 98.738281 4.140625 L 98.738281 3.390625 Z M 105.125 1.433594 "/>
<path style=" stroke:none;fill-rule:nonzero;fill:rgb(100%,100%,100%);fill-opacity:1;" d="M 99.089844 31.921875 C 99.90625 31.628906 100.46875 30.871094 100.515625 30 L 100.515625 24.058594 C 101.195312 22.386719 102.753906 21.058594 105.152344 19.265625 L 105.152344 29.949219 C 105.195312 30.871094 105.828125 31.664062 106.714844 31.914062 L 106.714844 32.859375 L 99.117188 32.859375 Z M 99.089844 31.921875 "/>
<path style=" stroke:none;fill-rule:nonzero;fill:rgb(100%,100%,100%);fill-opacity:1;" d="M 95.875 30 C 95.949219 30.894531 96.570312 31.648438 97.429688 31.890625 L 97.429688 32.851562 L 87.957031 32.851562 C 84.929688 32.769531 82.519531 30.28125 82.519531 27.238281 L 82.519531 14.601562 L 87.792969 14.601562 L 87.792969 15.496094 C 86.914062 15.777344 86.3125 16.59375 86.300781 17.519531 L 86.238281 26.671875 C 86.308594 28.511719 87.800781 29.976562 89.636719 30 C 91.773438 30 92.1875 28.394531 92.1875 27.886719 L 92.1875 14.601562 L 97.414062 14.601562 L 97.414062 15.503906 C 96.527344 15.785156 95.921875 16.609375 95.921875 17.542969 C 95.921875 17.542969 95.875 29.25 95.875 30 Z M 95.875 30 "/>
<path style=" stroke:none;fill-rule:nonzero;fill:rgb(100%,100%,100%);fill-opacity:1;" d="M 69.949219 7.867188 L 69.949219 14.828125 L 66.078125 19.800781 L 66.078125 12.496094 C 66.113281 11.550781 65.535156 10.695312 64.652344 10.371094 L 64.652344 9.472656 Z M 69.949219 7.867188 "/>
<path style=" stroke:none;fill-rule:nonzero;fill:rgb(100%,100%,100%);fill-opacity:1;" d="M 71.382812 32.804688 L 64.660156 32.804688 L 64.660156 31.890625 C 65.453125 31.589844 65.992188 30.847656 66.042969 30 C 66.042969 29.949219 66.042969 26.386719 66.042969 26.386719 L 69.925781 21.316406 L 69.925781 30 C 69.949219 30.875 70.515625 31.644531 71.34375 31.921875 Z M 71.382812 32.804688 "/>
<path style=" stroke:none;fill-rule:nonzero;fill:rgb(100%,100%,100%);fill-opacity:1;" d="M 69.949219 16.5 C 69.949219 16.5 67.535156 19.558594 66.070312 21.59375 C 63.898438 24.59375 60.207031 29.765625 52.566406 29.765625 C 49.875 29.765625 46.179688 29.109375 43.832031 25.265625 C 42.328125 22.609375 41.679688 19.542969 41.980469 16.5 C 42.578125 11.398438 45.664062 6.578125 51.414062 6.578125 C 54.273438 6.601562 56.957031 7.960938 58.675781 10.253906 C 59.089844 10.847656 59.3125 11.558594 59.304688 12.285156 L 59.976562 12.816406 L 60.066406 12.890625 L 64.152344 8.878906 C 60.449219 4.125 54.238281 2.105469 48.460938 3.78125 C 42.6875 5.460938 38.503906 10.492188 37.902344 16.5 C 37.847656 17.027344 37.820312 17.558594 37.820312 18.089844 C 37.820312 22.003906 39.378906 25.753906 42.140625 28.515625 C 44.90625 31.273438 48.652344 32.8125 52.550781 32.789062 C 57.9375 32.789062 62.097656 30.390625 66.078125 24.59375 C 66.265625 24.324219 69.277344 20.40625 69.277344 20.40625 C 69.277344 20.40625 71.203125 17.902344 71.253906 17.859375 C 71.71875 17.386719 72.378906 17.160156 73.03125 17.25 C 74.757812 17.496094 76.027344 19.003906 75.984375 20.753906 L 75.984375 29.886719 C 75.984375 30.796875 75.414062 31.609375 74.558594 31.914062 L 74.558594 32.804688 L 81.28125 32.804688 L 81.28125 31.914062 C 80.359375 31.652344 79.726562 30.808594 79.726562 29.851562 L 79.726562 20.316406 C 79.753906 18.8125 79.175781 17.359375 78.125 16.285156 C 77.074219 15.210938 75.636719 14.609375 74.136719 14.609375 C 72.539062 14.621094 71.019531 15.308594 69.949219 16.5 Z M 69.949219 16.5 "/>
<path style=" stroke:none;fill-rule:nonzero;fill:rgb(100%,100%,100%);fill-opacity:1;" d="M 66.0625 29.949219 C 66.0625 29.894531 66.0625 26.332031 66.0625 26.332031 L 69.949219 21.261719 L 69.949219 27.210938 Z M 66.0625 29.949219 "/>
<path style=" stroke:none;fill-rule:nonzero;fill:rgb(100%,100%,100%);fill-opacity:1;" d="M 75.976562 20.609375 L 75.976562 29.21875 L 79.71875 29.21875 L 79.695312 20.625 Z M 75.976562 20.609375 "/>
<path style=" stroke:none;fill-rule:nonzero;fill:rgb(100%,100%,100%);fill-opacity:1;" d="M 37.910156 38.886719 C 37.910156 38.378906 38.035156 37.882812 38.28125 37.441406 C 38.527344 36.992188 38.886719 36.617188 39.320312 36.351562 C 39.769531 36.074219 40.289062 35.929688 40.816406 35.941406 C 41.097656 35.9375 41.375 35.980469 41.644531 36.058594 C 41.871094 36.125 42.085938 36.21875 42.285156 36.34375 C 42.445312 36.449219 42.59375 36.558594 42.734375 36.683594 C 42.839844 36.769531 42.929688 36.867188 43.011719 36.976562 L 43.09375 37.085938 L 42.347656 37.777344 L 42.242188 37.703125 C 42.273438 37.660156 42.289062 37.605469 42.285156 37.550781 C 42.257812 37.277344 42.105469 37.027344 41.875 36.871094 C 41.570312 36.625 41.191406 36.5 40.800781 36.515625 C 40.261719 36.515625 39.753906 36.765625 39.425781 37.191406 C 39.035156 37.667969 38.828125 38.269531 38.84375 38.886719 C 38.832031 39.476562 39.035156 40.050781 39.410156 40.5 C 39.753906 40.9375 40.277344 41.1875 40.832031 41.175781 C 41.027344 41.175781 41.21875 41.160156 41.414062 41.128906 C 41.5625 41.105469 41.707031 41.074219 41.855469 41.03125 C 41.980469 40.992188 42.101562 40.9375 42.210938 40.867188 L 42.480469 40.6875 L 42.726562 40.46875 L 42.953125 40.265625 L 43.234375 40.574219 L 43.144531 40.710938 C 43.058594 40.816406 42.964844 40.921875 42.863281 41.015625 C 42.71875 41.160156 42.558594 41.289062 42.390625 41.398438 C 42.179688 41.53125 41.953125 41.636719 41.710938 41.707031 C 41.425781 41.796875 41.128906 41.84375 40.832031 41.84375 C 40.300781 41.847656 39.78125 41.691406 39.335938 41.398438 C 38.894531 41.125 38.527344 40.742188 38.269531 40.289062 C 38.027344 39.863281 37.902344 39.378906 37.910156 38.886719 Z M 37.910156 38.886719 "/>
<path style=" stroke:none;fill-rule:nonzero;fill:rgb(100%,100%,100%);fill-opacity:1;" d="M 47.097656 41.203125 C 47.097656 41.320312 47.136719 41.4375 47.210938 41.527344 C 47.261719 41.609375 47.351562 41.664062 47.449219 41.671875 L 47.449219 41.804688 L 45.863281 41.804688 L 45.863281 41.671875 C 45.960938 41.664062 46.046875 41.609375 46.097656 41.527344 C 46.164062 41.441406 46.203125 41.332031 46.203125 41.21875 L 46.203125 39.089844 C 46.199219 38.894531 46.144531 38.703125 46.042969 38.535156 C 45.960938 38.363281 45.785156 38.253906 45.597656 38.257812 C 45.429688 38.261719 45.269531 38.316406 45.140625 38.421875 C 45 38.53125 44.878906 38.664062 44.78125 38.8125 L 44.78125 41.203125 C 44.78125 41.320312 44.816406 41.433594 44.886719 41.527344 C 44.9375 41.609375 45.023438 41.664062 45.117188 41.671875 L 45.117188 41.804688 L 43.542969 41.804688 L 43.542969 41.671875 C 43.640625 41.664062 43.726562 41.605469 43.773438 41.519531 C 43.839844 41.429688 43.878906 41.320312 43.878906 41.203125 L 43.878906 36.9375 C 43.878906 36.824219 43.84375 36.714844 43.773438 36.621094 C 43.722656 36.539062 43.636719 36.484375 43.542969 36.480469 L 43.542969 36.34375 L 44.820312 36 L 44.820312 38.003906 C 45.023438 37.757812 45.320312 37.605469 45.640625 37.589844 C 46.019531 37.589844 46.386719 37.730469 46.671875 37.980469 C 46.992188 38.265625 47.164062 38.683594 47.136719 39.113281 Z M 47.097656 41.203125 "/>
<path style=" stroke:none;fill-rule:nonzero;fill:rgb(100%,100%,100%);fill-opacity:1;" d="M 51.25 37.550781 L 51.25 37.6875 C 51.152344 37.695312 51.066406 37.75 51.019531 37.835938 C 50.953125 37.929688 50.914062 38.039062 50.914062 38.152344 L 50.914062 41.203125 C 50.914062 41.320312 50.953125 41.433594 51.019531 41.527344 C 51.066406 41.613281 51.152344 41.667969 51.25 41.675781 L 51.25 41.804688 L 49.21875 41.804688 C 49.042969 41.804688 48.871094 41.78125 48.703125 41.730469 C 48.535156 41.675781 48.378906 41.597656 48.234375 41.496094 C 48.074219 41.386719 47.953125 41.230469 47.875 41.054688 C 47.777344 40.847656 47.734375 40.617188 47.738281 40.386719 L 47.738281 37.550781 L 48.972656 37.550781 L 48.972656 37.6875 C 48.875 37.695312 48.789062 37.746094 48.742188 37.828125 C 48.675781 37.917969 48.636719 38.027344 48.636719 38.136719 L 48.636719 40.386719 C 48.636719 40.5625 48.6875 40.734375 48.785156 40.882812 C 48.878906 41.03125 49.042969 41.121094 49.21875 41.113281 C 49.488281 41.132812 49.75 41.050781 49.964844 40.890625 L 49.964844 37.550781 Z M 51.25 37.550781 "/>
<path style=" stroke:none;fill-rule:nonzero;fill:rgb(100%,100%,100%);fill-opacity:1;" d="M 52.789062 36 L 52.789062 41.25 C 52.789062 41.363281 52.824219 41.472656 52.894531 41.566406 C 52.941406 41.648438 53.03125 41.703125 53.125 41.707031 L 53.125 41.835938 L 51.542969 41.835938 L 51.542969 41.707031 C 51.636719 41.699219 51.722656 41.648438 51.773438 41.566406 C 51.84375 41.476562 51.878906 41.363281 51.878906 41.25 L 51.878906 36.976562 C 51.878906 36.859375 51.84375 36.75 51.773438 36.660156 C 51.722656 36.578125 51.636719 36.523438 51.542969 36.515625 L 51.542969 36.382812 Z M 52.789062 36 "/>
<path style=" stroke:none;fill-rule:nonzero;fill:rgb(100%,100%,100%);fill-opacity:1;" d="M 55.277344 41.804688 C 54.808594 41.824219 54.347656 41.691406 53.960938 41.421875 C 53.628906 41.1875 53.4375 40.800781 53.445312 40.394531 C 53.449219 39.992188 53.667969 39.625 54.015625 39.425781 C 54.363281 39.1875 54.777344 39.054688 55.203125 39.050781 C 55.507812 39.054688 55.808594 39.128906 56.078125 39.269531 L 56.078125 39 C 56.085938 38.90625 56.085938 38.816406 56.078125 38.722656 C 56.054688 38.617188 56.019531 38.519531 55.972656 38.421875 C 55.921875 38.316406 55.839844 38.226562 55.742188 38.167969 C 55.625 38.101562 55.492188 38.066406 55.359375 38.070312 C 55.144531 38.050781 54.933594 38.097656 54.746094 38.203125 C 54.632812 38.296875 54.566406 38.441406 54.574219 38.585938 L 54.417969 38.699219 L 53.878906 37.898438 L 54.042969 37.777344 C 54.203125 37.695312 54.371094 37.628906 54.546875 37.582031 C 54.800781 37.519531 55.066406 37.488281 55.328125 37.5 C 55.789062 37.472656 56.238281 37.644531 56.5625 37.972656 C 56.875 38.355469 57.027344 38.84375 56.996094 39.335938 L 56.996094 41.21875 C 56.992188 41.339844 57.03125 41.460938 57.101562 41.558594 C 57.148438 41.640625 57.234375 41.699219 57.332031 41.707031 L 57.332031 41.835938 Z M 54.375 40.425781 C 54.382812 40.609375 54.457031 40.789062 54.589844 40.921875 C 54.773438 41.105469 55.03125 41.199219 55.292969 41.175781 C 55.546875 41.175781 55.800781 41.125 56.039062 41.03125 L 56.039062 39.90625 C 55.816406 39.761719 55.558594 39.683594 55.292969 39.683594 C 55.035156 39.664062 54.78125 39.753906 54.589844 39.929688 C 54.457031 40.0625 54.382812 40.238281 54.375 40.425781 Z M 54.375 40.425781 "/>
<path style=" stroke:none;fill-rule:nonzero;fill:rgb(100%,100%,100%);fill-opacity:1;" d="M 58.871094 36 L 58.871094 41.25 C 58.871094 41.363281 58.90625 41.472656 58.976562 41.566406 C 59.023438 41.648438 59.109375 41.703125 59.207031 41.707031 L 59.207031 41.835938 L 57.628906 41.835938 L 57.628906 41.707031 C 57.726562 41.699219 57.8125 41.648438 57.863281 41.566406 C 57.929688 41.476562 57.96875 41.363281 57.964844 41.25 L 57.964844 36.976562 C 57.96875 36.859375 57.929688 36.75 57.863281 36.660156 C 57.8125 36.578125 57.726562 36.523438 57.628906 36.515625 L 57.628906 36.382812 Z M 58.871094 36 "/>
<path style=" stroke:none;fill-rule:nonzero;fill:rgb(100%,100%,100%);fill-opacity:1;" d="M 60.125 38.144531 C 60.515625 37.738281 61.054688 37.507812 61.617188 37.507812 C 62.183594 37.507812 62.722656 37.738281 63.113281 38.144531 C 63.507812 38.542969 63.734375 39.082031 63.734375 39.644531 C 63.757812 40.242188 63.53125 40.824219 63.113281 41.25 C 62.726562 41.667969 62.1875 41.902344 61.617188 41.902344 C 61.050781 41.902344 60.511719 41.667969 60.125 41.25 C 59.71875 40.839844 59.496094 40.28125 59.503906 39.703125 C 59.488281 39.121094 59.714844 38.558594 60.125 38.144531 Z M 60.796875 40.71875 C 60.984375 40.992188 61.292969 41.152344 61.621094 41.152344 C 61.953125 41.152344 62.261719 40.992188 62.449219 40.71875 C 62.902344 40.101562 62.902344 39.261719 62.449219 38.648438 C 62.257812 38.378906 61.953125 38.214844 61.621094 38.214844 C 61.292969 38.214844 60.984375 38.378906 60.796875 38.648438 C 60.339844 39.261719 60.339844 40.101562 60.796875 40.71875 Z M 60.796875 40.71875 "/>
<path style=" stroke:none;fill-rule:nonzero;fill:rgb(100%,100%,100%);fill-opacity:1;" d="M 67.617188 41.203125 C 67.617188 41.320312 67.65625 41.4375 67.730469 41.527344 C 67.78125 41.613281 67.871094 41.667969 67.96875 41.675781 L 67.96875 41.804688 L 66.371094 41.804688 L 66.371094 41.675781 C 66.464844 41.667969 66.554688 41.613281 66.601562 41.527344 C 66.667969 41.4375 66.703125 41.332031 66.707031 41.21875 L 66.707031 38.910156 C 66.707031 38.734375 66.65625 38.5625 66.5625 38.414062 C 66.472656 38.265625 66.304688 38.179688 66.128906 38.191406 C 65.972656 38.1875 65.820312 38.226562 65.683594 38.300781 C 65.546875 38.375 65.429688 38.476562 65.339844 38.601562 L 65.339844 41.203125 C 65.339844 41.320312 65.375 41.433594 65.445312 41.527344 C 65.492188 41.613281 65.578125 41.667969 65.675781 41.675781 L 65.675781 41.804688 L 64.097656 41.804688 L 64.097656 41.675781 C 64.195312 41.671875 64.285156 41.613281 64.332031 41.527344 C 64.398438 41.433594 64.433594 41.320312 64.433594 41.203125 L 64.433594 38.453125 C 64.4375 38.335938 64.398438 38.222656 64.332031 38.128906 C 64.28125 38.046875 64.195312 37.992188 64.097656 37.988281 L 64.097656 37.859375 L 65.347656 37.5 L 65.347656 37.808594 C 65.558594 37.601562 65.84375 37.492188 66.136719 37.5 C 66.3125 37.5 66.488281 37.523438 66.652344 37.574219 C 66.820312 37.628906 66.980469 37.707031 67.125 37.808594 C 67.28125 37.917969 67.40625 38.074219 67.484375 38.25 C 67.578125 38.460938 67.625 38.6875 67.617188 38.917969 Z M 67.617188 41.203125 "/>
<path style=" stroke:none;fill-rule:nonzero;fill:rgb(100%,100%,100%);fill-opacity:1;" d="M 71.328125 37.921875 C 71.679688 38.167969 71.890625 38.570312 71.898438 39 C 71.902344 39.234375 71.84375 39.460938 71.734375 39.667969 C 71.628906 39.859375 71.484375 40.027344 71.308594 40.15625 C 71.136719 40.277344 70.945312 40.371094 70.746094 40.441406 C 70.558594 40.503906 70.359375 40.539062 70.15625 40.539062 C 69.496094 40.539062 69.164062 40.628906 69.164062 40.816406 C 69.164062 41 69.632812 41.109375 70.566406 41.136719 C 70.699219 41.128906 70.828125 41.128906 70.957031 41.136719 C 71.125 41.160156 71.292969 41.199219 71.457031 41.25 C 71.636719 41.300781 71.804688 41.378906 71.964844 41.476562 C 72.121094 41.574219 72.25 41.707031 72.347656 41.863281 C 72.453125 42.039062 72.507812 42.242188 72.503906 42.449219 C 72.503906 42.714844 72.433594 42.976562 72.292969 43.199219 C 72.15625 43.421875 71.96875 43.605469 71.75 43.738281 C 71.515625 43.878906 71.265625 43.984375 71 44.046875 C 70.742188 44.117188 70.476562 44.152344 70.210938 44.152344 C 69.683594 44.167969 69.167969 44.035156 68.714844 43.769531 C 68.335938 43.582031 68.089844 43.199219 68.082031 42.773438 C 68.0625 42.546875 68.160156 42.328125 68.34375 42.195312 C 68.542969 42.066406 68.777344 42.003906 69.015625 42.015625 C 68.925781 42.203125 68.890625 42.414062 68.910156 42.621094 C 68.933594 42.910156 69.066406 43.179688 69.28125 43.371094 C 69.570312 43.636719 69.949219 43.773438 70.335938 43.746094 C 70.714844 43.773438 71.089844 43.640625 71.367188 43.378906 C 71.578125 43.199219 71.710938 42.945312 71.734375 42.667969 C 71.710938 42.414062 71.566406 42.1875 71.34375 42.058594 C 71 41.875 70.605469 41.796875 70.21875 41.84375 C 68.941406 41.84375 68.304688 41.59375 68.304688 41.09375 C 68.304688 40.96875 68.34375 40.847656 68.417969 40.746094 C 68.484375 40.652344 68.578125 40.578125 68.683594 40.53125 C 68.789062 40.484375 68.898438 40.449219 69.007812 40.417969 C 69.09375 40.390625 69.183594 40.375 69.277344 40.363281 L 69.386719 40.363281 L 69.28125 40.363281 L 69.050781 40.246094 C 68.9375 40.183594 68.835938 40.105469 68.746094 40.011719 C 68.644531 39.902344 68.5625 39.777344 68.507812 39.636719 C 68.433594 39.46875 68.398438 39.28125 68.402344 39.097656 C 68.40625 38.785156 68.519531 38.484375 68.722656 38.25 C 68.898438 38.019531 69.132812 37.835938 69.402344 37.726562 C 69.652344 37.621094 69.917969 37.570312 70.1875 37.566406 C 70.46875 37.566406 70.75 37.628906 71.007812 37.746094 C 71.277344 37.640625 71.5625 37.585938 71.851562 37.582031 C 71.976562 37.570312 72.101562 37.570312 72.226562 37.582031 C 72.3125 37.597656 72.394531 37.617188 72.472656 37.648438 L 72.546875 37.648438 L 72.203125 38.300781 L 72.085938 38.226562 C 72.078125 38.132812 72.03125 38.046875 71.949219 37.996094 C 71.859375 37.929688 71.75 37.894531 71.636719 37.898438 Z M 69.328125 39.082031 C 69.308594 39.351562 69.386719 39.617188 69.542969 39.832031 C 69.6875 40.007812 69.902344 40.105469 70.128906 40.101562 C 70.367188 40.121094 70.597656 40.023438 70.753906 39.839844 C 70.917969 39.625 70.996094 39.359375 70.980469 39.089844 C 70.980469 38.386719 70.699219 38.03125 70.132812 38.03125 C 69.90625 38.023438 69.691406 38.128906 69.550781 38.308594 C 69.394531 38.539062 69.3125 38.8125 69.328125 39.089844 Z M 69.328125 39.082031 "/>
<path style=" stroke:none;fill-rule:nonzero;fill:rgb(100%,100%,100%);fill-opacity:1;" d="M 74.699219 39.246094 C 74.910156 39.367188 75.089844 39.539062 75.214844 39.75 C 75.394531 40.011719 75.558594 40.285156 75.699219 40.566406 C 75.828125 40.832031 75.980469 41.082031 76.15625 41.316406 C 76.324219 41.542969 76.476562 41.65625 76.609375 41.65625 L 76.609375 41.804688 L 75.328125 41.804688 L 75.25 41.625 L 75.050781 41.203125 C 74.949219 41 74.851562 40.8125 74.75 40.640625 C 74.648438 40.460938 74.53125 40.289062 74.40625 40.125 C 74.308594 39.984375 74.1875 39.855469 74.050781 39.75 L 74.050781 41.203125 C 74.046875 41.320312 74.085938 41.433594 74.152344 41.527344 C 74.203125 41.613281 74.289062 41.667969 74.386719 41.675781 L 74.386719 41.804688 L 72.800781 41.804688 L 72.800781 41.675781 C 72.898438 41.671875 72.988281 41.613281 73.03125 41.527344 C 73.101562 41.433594 73.136719 41.320312 73.136719 41.203125 L 73.136719 36.9375 C 73.136719 36.824219 73.101562 36.714844 73.03125 36.621094 C 72.984375 36.539062 72.898438 36.484375 72.800781 36.480469 L 72.800781 36.351562 L 74.042969 35.976562 L 74.042969 38.820312 L 74.789062 37.550781 L 76.082031 37.550781 L 76.082031 37.679688 C 75.996094 37.679688 75.910156 37.703125 75.835938 37.738281 C 75.753906 37.777344 75.675781 37.828125 75.601562 37.882812 C 75.519531 37.949219 75.445312 38.023438 75.378906 38.109375 L 75.183594 38.363281 C 75.128906 38.4375 75.074219 38.53125 75.011719 38.640625 L 74.871094 38.886719 L 74.757812 39.105469 Z M 74.699219 39.246094 "/>
<path style=" stroke:none;fill-rule:nonzero;fill:rgb(100%,100%,100%);fill-opacity:1;" d="M 76.859375 38.144531 C 77.25 37.738281 77.789062 37.507812 78.351562 37.507812 C 78.914062 37.507812 79.453125 37.738281 79.84375 38.144531 C 80.242188 38.542969 80.464844 39.082031 80.464844 39.644531 C 80.472656 40.222656 80.25 40.78125 79.84375 41.191406 C 79.460938 41.605469 78.917969 41.84375 78.351562 41.84375 C 77.785156 41.84375 77.242188 41.605469 76.859375 41.191406 C 76.453125 40.78125 76.230469 40.222656 76.238281 39.644531 C 76.238281 39.082031 76.460938 38.542969 76.859375 38.144531 Z M 77.53125 40.71875 C 77.714844 40.992188 78.023438 41.152344 78.355469 41.152344 C 78.683594 41.152344 78.992188 40.992188 79.179688 40.71875 C 79.636719 40.101562 79.636719 39.261719 79.179688 38.648438 C 78.992188 38.378906 78.683594 38.214844 78.355469 38.214844 C 78.027344 38.214844 77.71875 38.378906 77.53125 38.648438 C 77.074219 39.261719 77.074219 40.101562 77.53125 40.71875 Z M 77.53125 40.71875 "/>
<path style=" stroke:none;fill-rule:nonzero;fill:rgb(100%,100%,100%);fill-opacity:1;" d="M 82.824219 37.5 C 82.972656 37.5 83.121094 37.515625 83.265625 37.546875 C 83.367188 37.5625 83.464844 37.589844 83.558594 37.628906 L 83.648438 37.671875 L 83.246094 38.648438 L 83.101562 38.542969 C 83.105469 38.40625 83.046875 38.273438 82.945312 38.183594 C 82.84375 38.085938 82.707031 38.03125 82.566406 38.03125 C 82.355469 38.03125 82.152344 38.117188 82.003906 38.265625 L 82.003906 41.210938 C 82.003906 41.328125 82.039062 41.441406 82.109375 41.535156 C 82.15625 41.621094 82.242188 41.675781 82.339844 41.683594 L 82.339844 41.8125 L 80.75 41.8125 L 80.75 41.683594 C 80.847656 41.679688 80.933594 41.621094 80.980469 41.535156 C 81.046875 41.441406 81.085938 41.328125 81.085938 41.210938 L 81.085938 38.445312 C 81.085938 38.332031 81.050781 38.21875 80.980469 38.128906 C 80.933594 38.046875 80.84375 37.992188 80.75 37.988281 L 80.75 37.859375 L 81.996094 37.476562 L 81.996094 37.710938 C 82.25 37.566406 82.535156 37.492188 82.824219 37.5 Z M 82.824219 37.5 "/>
<path style=" stroke:none;fill-rule:nonzero;fill:rgb(100%,100%,100%);fill-opacity:1;" d="M 87.457031 41.203125 C 87.457031 41.320312 87.496094 41.4375 87.570312 41.527344 C 87.621094 41.613281 87.710938 41.667969 87.808594 41.675781 L 87.808594 41.804688 L 86.203125 41.804688 L 86.203125 41.675781 C 86.300781 41.667969 86.386719 41.613281 86.433594 41.527344 C 86.5 41.4375 86.539062 41.332031 86.539062 41.21875 L 86.539062 38.910156 C 86.539062 38.734375 86.492188 38.5625 86.398438 38.414062 C 86.304688 38.265625 86.136719 38.179688 85.964844 38.191406 C 85.808594 38.1875 85.652344 38.226562 85.515625 38.300781 C 85.378906 38.375 85.261719 38.476562 85.171875 38.601562 L 85.171875 41.203125 C 85.171875 41.320312 85.207031 41.433594 85.277344 41.527344 C 85.324219 41.613281 85.410156 41.667969 85.507812 41.675781 L 85.507812 41.804688 L 83.917969 41.804688 L 83.917969 41.675781 C 84.015625 41.671875 84.101562 41.613281 84.148438 41.527344 C 84.214844 41.433594 84.253906 41.320312 84.253906 41.203125 L 84.253906 38.453125 C 84.253906 38.335938 84.21875 38.222656 84.148438 38.128906 C 84.097656 38.046875 84.011719 37.992188 83.917969 37.988281 L 83.917969 37.859375 L 85.15625 37.5 L 85.15625 37.808594 C 85.375 37.59375 85.671875 37.484375 85.976562 37.5 C 86.152344 37.5 86.328125 37.523438 86.492188 37.574219 C 86.660156 37.628906 86.820312 37.707031 86.964844 37.808594 C 87.121094 37.917969 87.246094 38.074219 87.324219 38.25 C 87.417969 38.460938 87.464844 38.6875 87.457031 38.917969 Z M 87.457031 41.203125 "/>
<path style=" stroke:none;fill-rule:nonzero;fill:rgb(100%,100%,100%);fill-opacity:1;" d="M 94.582031 36.113281 C 94.488281 36.121094 94.398438 36.175781 94.351562 36.261719 C 94.28125 36.351562 94.242188 36.457031 94.238281 36.570312 L 94.238281 41.203125 C 94.238281 41.320312 94.273438 41.433594 94.34375 41.527344 C 94.394531 41.609375 94.480469 41.664062 94.574219 41.671875 L 94.574219 41.804688 L 93.328125 41.804688 L 93.328125 41.175781 C 92.882812 41.613281 92.285156 41.859375 91.664062 41.859375 C 91.445312 41.859375 91.230469 41.820312 91.027344 41.746094 C 90.851562 41.675781 90.6875 41.574219 90.550781 41.445312 C 90.425781 41.320312 90.320312 41.179688 90.234375 41.023438 C 90.085938 40.753906 90.003906 40.445312 90.003906 40.132812 L 90.003906 36.570312 C 90 36.460938 89.960938 36.355469 89.890625 36.269531 C 89.847656 36.183594 89.757812 36.125 89.660156 36.113281 L 89.660156 36 L 91.253906 36 L 91.253906 36.136719 C 91.15625 36.144531 91.070312 36.199219 91.019531 36.285156 C 90.949219 36.371094 90.910156 36.480469 90.910156 36.59375 L 90.910156 40.140625 C 90.902344 40.226562 90.902344 40.308594 90.910156 40.394531 C 90.925781 40.488281 90.953125 40.578125 90.992188 40.664062 C 91.027344 40.761719 91.085938 40.847656 91.15625 40.921875 C 91.242188 41 91.34375 41.058594 91.453125 41.09375 C 91.59375 41.144531 91.746094 41.167969 91.894531 41.167969 C 92.46875 41.101562 92.988281 40.792969 93.320312 40.320312 L 93.320312 36.570312 C 93.316406 36.460938 93.277344 36.355469 93.210938 36.269531 C 93.164062 36.183594 93.074219 36.125 92.976562 36.113281 L 92.976562 36 L 94.570312 36 Z M 94.582031 36.113281 "/>
<path style=" stroke:none;fill-rule:nonzero;fill:rgb(100%,100%,100%);fill-opacity:1;" d="M 98.394531 41.203125 C 98.394531 41.320312 98.433594 41.4375 98.503906 41.527344 C 98.558594 41.613281 98.644531 41.667969 98.746094 41.675781 L 98.746094 41.804688 L 97.109375 41.804688 L 97.109375 41.675781 C 97.207031 41.667969 97.292969 41.613281 97.339844 41.527344 C 97.40625 41.4375 97.445312 41.332031 97.445312 41.21875 L 97.445312 38.910156 C 97.445312 38.734375 97.398438 38.5625 97.300781 38.414062 C 97.210938 38.265625 97.042969 38.179688 96.871094 38.191406 C 96.714844 38.1875 96.558594 38.226562 96.421875 38.300781 C 96.285156 38.375 96.167969 38.476562 96.078125 38.601562 L 96.078125 41.203125 C 96.078125 41.320312 96.113281 41.433594 96.183594 41.527344 C 96.230469 41.613281 96.316406 41.667969 96.414062 41.675781 L 96.414062 41.804688 L 94.867188 41.804688 L 94.867188 41.675781 C 94.964844 41.671875 95.054688 41.613281 95.097656 41.527344 C 95.167969 41.433594 95.203125 41.320312 95.203125 41.203125 L 95.203125 38.453125 C 95.203125 38.335938 95.167969 38.222656 95.097656 38.128906 C 95.050781 38.046875 94.964844 37.992188 94.867188 37.988281 L 94.867188 37.859375 L 96.113281 37.476562 L 96.113281 37.785156 C 96.332031 37.589844 96.617188 37.484375 96.90625 37.5 C 97.082031 37.5 97.253906 37.523438 97.421875 37.574219 C 97.589844 37.628906 97.75 37.707031 97.894531 37.808594 C 98.050781 37.917969 98.171875 38.074219 98.25 38.25 C 98.347656 38.460938 98.390625 38.6875 98.386719 38.917969 Z M 98.394531 41.203125 "/>
<path style=" stroke:none;fill-rule:nonzero;fill:rgb(100%,100%,100%);fill-opacity:1;" d="M 100.28125 41.203125 C 100.28125 41.320312 100.316406 41.433594 100.386719 41.527344 C 100.4375 41.609375 100.523438 41.664062 100.621094 41.671875 L 100.621094 41.804688 L 99.027344 41.804688 L 99.027344 41.671875 C 99.125 41.664062 99.210938 41.605469 99.257812 41.519531 C 99.328125 41.429688 99.363281 41.320312 99.363281 41.203125 L 99.363281 38.46875 C 99.363281 38.355469 99.328125 38.242188 99.257812 38.152344 C 99.210938 38.070312 99.125 38.015625 99.027344 38.011719 L 99.027344 37.882812 L 100.277344 37.5 Z M 99.535156 36.953125 C 99.449219 36.867188 99.398438 36.753906 99.398438 36.628906 C 99.398438 36.507812 99.449219 36.390625 99.535156 36.308594 C 99.621094 36.222656 99.738281 36.171875 99.855469 36.171875 C 99.976562 36.171875 100.089844 36.21875 100.171875 36.308594 C 100.347656 36.484375 100.347656 36.773438 100.171875 36.953125 C 100.089844 37.039062 99.976562 37.089844 99.855469 37.085938 C 99.730469 37.09375 99.605469 37.046875 99.515625 36.953125 Z M 99.535156 36.953125 "/>
<path style=" stroke:none;fill-rule:nonzero;fill:rgb(100%,100%,100%);fill-opacity:1;" d="M 101.21875 37.980469 C 101.1875 37.894531 101.125 37.820312 101.046875 37.777344 C 100.96875 37.726562 100.882812 37.699219 100.792969 37.695312 L 100.792969 37.550781 L 102.285156 37.550781 L 102.285156 37.695312 C 102.230469 37.691406 102.175781 37.714844 102.136719 37.753906 C 102.097656 37.789062 102.078125 37.839844 102.074219 37.890625 C 102.074219 38 102.296875 38.800781 102.742188 40.296875 C 103.183594 38.796875 103.40625 37.996094 103.40625 37.890625 C 103.40625 37.785156 103.339844 37.71875 103.203125 37.695312 L 103.203125 37.550781 L 104.699219 37.550781 L 104.699219 37.695312 C 104.605469 37.699219 104.515625 37.726562 104.4375 37.777344 C 104.355469 37.820312 104.296875 37.894531 104.265625 37.980469 L 103.964844 39 L 103.433594 40.898438 L 103.175781 41.820312 L 102.335938 41.820312 L 102.074219 40.898438 L 101.5 39 Z M 101.21875 37.980469 "/>
<path style=" stroke:none;fill-rule:nonzero;fill:rgb(100%,100%,100%);fill-opacity:1;" d="M 106.753906 41.25 C 106.996094 41.25 107.234375 41.203125 107.460938 41.113281 C 107.648438 41.050781 107.828125 40.960938 107.992188 40.851562 C 108.113281 40.761719 108.25 40.652344 108.402344 40.523438 L 108.695312 40.785156 L 108.621094 40.90625 C 108.550781 40.996094 108.476562 41.085938 108.394531 41.167969 C 108.144531 41.449219 107.820312 41.652344 107.460938 41.761719 C 107.222656 41.84375 106.96875 41.882812 106.714844 41.878906 C 106.128906 41.898438 105.566406 41.664062 105.160156 41.242188 C 104.34375 40.375 104.34375 39.019531 105.160156 38.152344 C 105.546875 37.734375 106.085938 37.496094 106.65625 37.5 C 106.871094 37.496094 107.089844 37.527344 107.296875 37.589844 C 107.476562 37.640625 107.644531 37.722656 107.796875 37.828125 C 107.929688 37.925781 108.054688 38.039062 108.164062 38.160156 C 108.261719 38.269531 108.347656 38.394531 108.417969 38.527344 C 108.476562 38.648438 108.53125 38.757812 108.574219 38.859375 C 108.609375 38.933594 108.636719 39.015625 108.65625 39.097656 L 108.65625 39.1875 C 107.554688 39.402344 106.496094 39.800781 105.527344 40.363281 C 105.621094 40.609375 105.78125 40.828125 105.984375 40.996094 C 106.195312 41.175781 106.472656 41.269531 106.753906 41.25 Z M 106.707031 38.25 C 106.359375 38.242188 106.027344 38.398438 105.8125 38.671875 C 105.570312 38.964844 105.445312 39.339844 105.460938 39.71875 L 105.460938 39.75 C 105.808594 39.546875 106.171875 39.375 106.550781 39.234375 C 106.921875 39.085938 107.304688 38.96875 107.691406 38.886719 C 107.632812 38.703125 107.515625 38.546875 107.355469 38.4375 C 107.167969 38.304688 106.9375 38.238281 106.707031 38.25 Z M 106.707031 38.25 "/>
<path style=" stroke:none;fill-rule:nonzero;fill:rgb(100%,100%,100%);fill-opacity:1;" d="M 111.167969 37.5 C 111.316406 37.5 111.460938 37.515625 111.609375 37.546875 C 111.707031 37.5625 111.804688 37.589844 111.898438 37.628906 L 111.988281 37.671875 L 111.585938 38.648438 L 111.441406 38.542969 C 111.445312 38.40625 111.386719 38.273438 111.285156 38.183594 C 111.183594 38.085938 111.046875 38.03125 110.90625 38.03125 C 110.695312 38.03125 110.496094 38.117188 110.34375 38.265625 L 110.34375 41.210938 C 110.34375 41.328125 110.382812 41.441406 110.449219 41.535156 C 110.496094 41.621094 110.585938 41.675781 110.679688 41.683594 L 110.679688 41.8125 L 109.089844 41.8125 L 109.089844 41.683594 C 109.1875 41.679688 109.277344 41.621094 109.320312 41.535156 C 109.390625 41.441406 109.425781 41.328125 109.425781 41.210938 L 109.425781 38.445312 C 109.425781 38.332031 109.390625 38.21875 109.320312 38.128906 C 109.273438 38.046875 109.1875 37.992188 109.089844 37.988281 L 109.089844 37.859375 L 110.335938 37.476562 L 110.335938 37.710938 C 110.589844 37.566406 110.875 37.492188 111.167969 37.5 Z M 111.167969 37.5 "/>
<path style=" stroke:none;fill-rule:nonzero;fill:rgb(100%,100%,100%);fill-opacity:1;" d="M 113.699219 37.5 C 113.921875 37.5 114.144531 37.539062 114.355469 37.613281 C 114.523438 37.664062 114.683594 37.738281 114.835938 37.828125 L 114.984375 37.941406 L 114.582031 38.691406 L 114.394531 38.609375 C 114.390625 38.578125 114.390625 38.546875 114.394531 38.511719 C 114.386719 38.402344 114.320312 38.300781 114.222656 38.25 C 114.078125 38.164062 113.910156 38.121094 113.742188 38.128906 C 113.320312 38.128906 113.109375 38.308594 113.109375 38.671875 C 113.105469 38.761719 113.148438 38.847656 113.222656 38.902344 C 113.308594 38.96875 113.40625 39.019531 113.511719 39.050781 L 113.90625 39.164062 C 114.058594 39.203125 114.207031 39.253906 114.347656 39.316406 C 114.488281 39.375 114.621094 39.453125 114.746094 39.546875 C 114.871094 39.652344 114.972656 39.785156 115.035156 39.9375 C 115.113281 40.121094 115.152344 40.320312 115.148438 40.523438 C 115.148438 40.699219 115.105469 40.871094 115.019531 41.023438 C 114.945312 41.167969 114.835938 41.292969 114.707031 41.390625 C 114.582031 41.484375 114.445312 41.5625 114.304688 41.625 C 114.175781 41.683594 114.042969 41.726562 113.90625 41.761719 C 113.808594 41.78125 113.710938 41.796875 113.609375 41.796875 C 113.324219 41.800781 113.039062 41.765625 112.765625 41.691406 C 112.578125 41.648438 112.402344 41.574219 112.242188 41.46875 L 112.09375 41.363281 L 112.496094 40.515625 L 112.625 40.574219 C 112.628906 40.667969 112.628906 40.765625 112.625 40.859375 C 112.625 40.90625 112.625 40.949219 112.71875 41.003906 C 112.8125 41.066406 112.917969 41.109375 113.027344 41.136719 C 113.171875 41.179688 113.324219 41.199219 113.476562 41.199219 C 113.679688 41.214844 113.882812 41.152344 114.042969 41.023438 C 114.15625 40.929688 114.226562 40.792969 114.230469 40.640625 C 114.234375 40.484375 114.15625 40.335938 114.027344 40.246094 C 113.878906 40.136719 113.710938 40.050781 113.535156 39.996094 C 113.339844 39.933594 113.148438 39.859375 112.960938 39.773438 C 112.761719 39.683594 112.589844 39.546875 112.464844 39.367188 C 112.316406 39.148438 112.246094 38.882812 112.265625 38.617188 C 112.265625 38.28125 112.433594 37.964844 112.714844 37.777344 C 113 37.578125 113.347656 37.480469 113.699219 37.5 Z M 113.699219 37.5 "/>
<path style=" stroke:none;fill-rule:nonzero;fill:rgb(100%,100%,100%);fill-opacity:1;" d="M 116.679688 41.203125 C 116.679688 41.320312 116.714844 41.433594 116.785156 41.527344 C 116.835938 41.609375 116.921875 41.664062 117.015625 41.671875 L 117.015625 41.804688 L 115.425781 41.804688 L 115.425781 41.671875 C 115.523438 41.664062 115.609375 41.605469 115.65625 41.519531 C 115.722656 41.429688 115.757812 41.320312 115.761719 41.203125 L 115.761719 38.46875 C 115.761719 38.355469 115.722656 38.242188 115.65625 38.152344 C 115.605469 38.070312 115.519531 38.015625 115.425781 38.011719 L 115.425781 37.882812 L 116.679688 37.5 Z M 115.933594 36.953125 C 115.84375 36.867188 115.792969 36.753906 115.792969 36.628906 C 115.792969 36.507812 115.84375 36.390625 115.933594 36.308594 C 116.015625 36.222656 116.132812 36.171875 116.253906 36.171875 C 116.371094 36.171875 116.484375 36.21875 116.566406 36.308594 C 116.742188 36.484375 116.742188 36.773438 116.566406 36.953125 C 116.484375 37.039062 116.371094 37.089844 116.253906 37.085938 C 116.125 37.09375 116 37.046875 115.910156 36.953125 Z M 115.933594 36.953125 "/>
<path style=" stroke:none;fill-rule:nonzero;fill:rgb(100%,100%,100%);fill-opacity:1;" d="M 117.097656 38.25 L 117.351562 37.574219 C 117.5 37.574219 117.640625 37.53125 117.761719 37.449219 C 117.878906 37.371094 117.972656 37.265625 118.039062 37.140625 C 118.101562 37.023438 118.152344 36.902344 118.195312 36.78125 C 118.230469 36.679688 118.257812 36.578125 118.269531 36.472656 L 118.269531 36.351562 L 118.769531 36.351562 L 118.769531 37.566406 L 119.691406 37.566406 L 119.480469 38.242188 L 118.734375 38.242188 L 118.734375 40.574219 C 118.734375 41.046875 119.023438 41.28125 119.609375 41.28125 L 119.609375 41.804688 L 118.980469 41.804688 C 118.671875 41.8125 118.375 41.691406 118.160156 41.476562 C 117.933594 41.261719 117.808594 40.964844 117.816406 40.65625 L 117.816406 38.25 Z M 117.097656 38.25 "/>
<path style=" stroke:none;fill-rule:nonzero;fill:rgb(100%,100%,100%);fill-opacity:1;" d="M 121.910156 40.265625 C 122.351562 38.765625 122.574219 37.972656 122.574219 37.882812 C 122.574219 37.832031 122.554688 37.78125 122.519531 37.746094 C 122.480469 37.710938 122.425781 37.691406 122.371094 37.695312 L 122.371094 37.550781 L 123.867188 37.550781 L 123.867188 37.695312 C 123.773438 37.699219 123.6875 37.726562 123.613281 37.777344 C 123.53125 37.820312 123.46875 37.894531 123.441406 37.980469 C 123.441406 37.980469 123.328125 38.398438 123.097656 39.203125 L 122.410156 41.625 C 122.175781 42.433594 122.039062 42.902344 122 43.027344 C 121.953125 43.199219 121.871094 43.359375 121.757812 43.5 C 121.65625 43.621094 121.535156 43.726562 121.402344 43.808594 C 121.285156 43.875 121.164062 43.933594 121.042969 43.988281 C 120.949219 44.03125 120.851562 44.0625 120.75 44.085938 L 120.644531 44.085938 L 120.644531 43.785156 L 120.734375 43.71875 C 120.800781 43.65625 120.863281 43.589844 120.914062 43.515625 C 120.996094 43.414062 121.058594 43.300781 121.101562 43.175781 C 121.1875 42.921875 121.320312 42.464844 121.503906 41.804688 C 121.78125 40.816406 121.140625 40.523438 120.414062 37.980469 C 120.386719 37.894531 120.328125 37.824219 120.25 37.777344 C 120.175781 37.726562 120.085938 37.699219 119.996094 37.695312 L 119.996094 37.550781 L 121.488281 37.550781 L 121.488281 37.695312 C 121.433594 37.691406 121.378906 37.710938 121.339844 37.746094 C 121.304688 37.78125 121.285156 37.832031 121.289062 37.882812 C 121.332031 38.101562 121.386719 38.320312 121.453125 38.535156 C 121.5625 38.933594 121.671875 39.324219 121.78125 39.703125 Z M 121.910156 40.265625 "/>
</g>
</svg>
