<svg id="Layer_1" data-name="Layer 1" xmlns="http://www.w3.org/2000/svg" viewBox="0 0 122 60"><defs><style>.cls-1{fill:#db5f8e;}.cls-2{fill:#de5c8e;}.cls-3{fill:#898989;}</style></defs><title>logo-chula-sub-2020-color</title><path class="cls-1" d="M106.72,44.08h0Z"/><path class="cls-1" d="M114,25.91c0,.07,0,2.58,0,2.58a12.67,12.67,0,0,0-5.83-1,13.22,13.22,0,0,0-7,2.7,7.19,7.19,0,0,0-2.6,6,7.87,7.87,0,0,0,7.59,7.86h15.52v-.91a3.08,3.08,0,0,1-2.53-2.83V27c0-6.58-6.25-8.5-10.15-8.45a13.21,13.21,0,0,0-7.81,2.81l2.74,4,1.18-.76a3,3,0,0,1,1-2.37,5,5,0,0,1,6.64.52A5,5,0,0,1,114,25.91Zm0,11.54c0,1.68-1.55,3.37-5.53,3.37A4.9,4.9,0,0,1,104,36.09a4.8,4.8,0,0,1,4.91-5c3.43,0,5.13,1.83,5.13,3.12C114,34.24,114,37,114,37.45Z"/><path class="cls-1" d="M95.15,0V27.83c-2.56,1.39-4.8,5.3-6.57,7.59L88.4,6.73h0A3,3,0,0,0,86.15,3.8V2.71Z"/><path class="cls-1" d="M86.64,42.78a3,3,0,0,0,2-2.69l0-8.34c1-2.35,3.17-4.17,6.53-6.73V40a3,3,0,0,0,2.2,2.76V44.1l-10.7,0Z"/><path class="cls-1" d="M71,44.07h0Z"/><line class="cls-1" x1="82.33" y1="22.5" x2="82.33" y2="22.68"/><path class="cls-1" d="M82.12,40.12a3,3,0,0,0,2.19,2.65v1.31l-12.94,0H71a7.87,7.87,0,0,1-7.67-7.87V18.48h7.43v1.25a3,3,0,0,0-2.15,2.84l-.08,12.83a4.85,4.85,0,0,0,4.86,4.7c3,0,3.59-2.25,3.59-3V18.48h7.38v1.27a3,3,0,0,0-2.1,2.87S82.12,39,82.12,40.12Z"/><path class="cls-1" d="M45.6,9V18.8l-5.46,7V15.52a3,3,0,0,0-2-3V11.29Z"/><path class="cls-1" d="M47.62,44H38.14V42.74a3,3,0,0,0,2-2.67c0-.07,0-5.07,0-5.07l5.47-7.11V40.07a2.93,2.93,0,0,0,2,2.7Z"/><path class="cls-1" d="M45.6,21.15s-3.4,4.29-5.46,7.14c-3.06,4.24-8.26,11.47-19,11.47-3.79,0-9-.93-12.3-6.26A20.74,20.74,0,0,1,6.19,21.19c.86-7.2,5.19-14,13.29-14a12.93,12.93,0,0,1,10.23,5.16,4.87,4.87,0,0,1,.88,2.86l.94.75.13.1,5.76-5.63a20.74,20.74,0,0,0-37,10.7,21.27,21.27,0,0,0-.12,2.23A20.64,20.64,0,0,0,21.09,44c7.59,0,13.45-3.36,19.05-11.5.26-.37,4.5-5.87,4.5-5.87s2.72-3.51,2.79-3.58a3,3,0,0,1,2.5-.81,4.84,4.84,0,0,1,4.15,4.91V39.93a3,3,0,0,1-2,2.84V44h9.47V42.77a3,3,0,0,1-2.19-2.89V26.5a7.86,7.86,0,0,0-7.87-8A8,8,0,0,0,45.6,21.15Z"/><path class="cls-1" d="M40.12,40c0-.07,0-5.07,0-5.07l5.47-7.11v8.34Z"/><polygon class="cls-1" points="54.09 26.91 54.09 38.99 59.36 38.99 59.33 26.93 54.09 26.91"/><path class="cls-2" d="M105.9,44.12h0Z"/><path class="cls-3" d="M.47,52.56a4.15,4.15,0,0,1,.52-2A4.07,4.07,0,0,1,2.45,49a3.88,3.88,0,0,1,2.07-.58,4,4,0,0,1,1.16.17,3.44,3.44,0,0,1,.91.4,6,6,0,0,1,.63.47,2.48,2.48,0,0,1,.39.41l.12.16-1,1-.15-.11a.34.34,0,0,0,.06-.21,1.33,1.33,0,0,0-.58-1,2.26,2.26,0,0,0-1.52-.49,2.42,2.42,0,0,0-1.94.94,3.6,3.6,0,0,0-.78,2.38,3.42,3.42,0,0,0,.78,2.25,2.48,2.48,0,0,0,2,.94,4.87,4.87,0,0,0,.82-.07A5.45,5.45,0,0,0,6,55.55a2.18,2.18,0,0,0,.51-.24,3.91,3.91,0,0,0,.38-.25l.35-.31.32-.28.4.43-.13.19a4.82,4.82,0,0,1-.4.43,4.45,4.45,0,0,1-.67.54,3.88,3.88,0,0,1-1,.43,4,4,0,0,1-1.24.19,3.78,3.78,0,0,1-2.08-.62A4.45,4.45,0,0,1,1,54.5,3.88,3.88,0,0,1,.47,52.56Z"/><path class="cls-3" d="M13.41,55.81a.72.72,0,0,0,.16.45.43.43,0,0,0,.34.2v.19H11.67v-.19a.42.42,0,0,0,.33-.2.7.7,0,0,0,.15-.43v-3a1.56,1.56,0,0,0-.23-.78.7.7,0,0,0-.63-.39,1,1,0,0,0-.65.24,2.18,2.18,0,0,0-.51.55v3.36a.75.75,0,0,0,.15.45.41.41,0,0,0,.33.2v.19H8.39v-.19a.41.41,0,0,0,.33-.21.76.76,0,0,0,.15-.45v-6a.73.73,0,0,0-.15-.45.41.41,0,0,0-.33-.2V49l1.76-.51v2.81a1.62,1.62,0,0,1,1.15-.58,2.2,2.2,0,0,1,1.45.55,2,2,0,0,1,.65,1.59Z"/><path class="cls-3" d="M19.26,50.68v.19a.41.41,0,0,0-.33.21.76.76,0,0,0-.15.45v4.28a.77.77,0,0,0,.15.46.41.41,0,0,0,.33.21v.18H16.4a2.5,2.5,0,0,1-.72-.11,2.4,2.4,0,0,1-.67-.32,1.51,1.51,0,0,1-.51-.62,2.15,2.15,0,0,1-.19-.93v-4H16v.19a.41.41,0,0,0-.33.2.72.72,0,0,0-.15.43v3.17a1.24,1.24,0,0,0,.21.69.69.69,0,0,0,.61.32,1.59,1.59,0,0,0,1.09-.31v-4.7Z"/><path class="cls-3" d="M21.43,48.47v7.35a.73.73,0,0,0,.15.45.41.41,0,0,0,.33.2v.18H19.67v-.18a.42.42,0,0,0,.33-.2.72.72,0,0,0,.15-.44v-6a.71.71,0,0,0-.15-.45.42.42,0,0,0-.33-.2V49Z"/><path class="cls-3" d="M24.9,56.65A3,3,0,0,1,23,56.11a1.7,1.7,0,0,1-.72-1.44,1.57,1.57,0,0,1,.8-1.36,3,3,0,0,1,1.68-.53,2.65,2.65,0,0,1,1.23.3v-.37a1.93,1.93,0,0,0,0-.39,1.83,1.83,0,0,0-.15-.42.83.83,0,0,0-.33-.36,1,1,0,0,0-.54-.14,1.44,1.44,0,0,0-.86.19.64.64,0,0,0-.24.53l-.22.16-.76-1.12.24-.17a3.53,3.53,0,0,1,.7-.27A3.91,3.91,0,0,1,25,50.57a2.24,2.24,0,0,1,1.74.67,2.73,2.73,0,0,1,.61,1.91v2.64a.79.79,0,0,0,.15.47.42.42,0,0,0,.33.21v.18Zm-1.24-1.94a1.08,1.08,0,0,0,.31.7,1.24,1.24,0,0,0,1,.36,2.89,2.89,0,0,0,1.08-.2V54a2,2,0,0,0-1-.31A1.32,1.32,0,0,0,24,54,1,1,0,0,0,23.65,54.71Z"/><path class="cls-3" d="M30,48.47v7.35a.73.73,0,0,0,.15.45.41.41,0,0,0,.33.2v.18H28.24v-.18a.42.42,0,0,0,.33-.2.72.72,0,0,0,.15-.44v-6a.71.71,0,0,0-.15-.45.42.42,0,0,0-.33-.2V49Z"/><path class="cls-3" d="M31.76,51.52a2.92,2.92,0,0,1,4.21,0,3,3,0,0,1,.87,2.15A3,3,0,0,1,36,55.84a2.88,2.88,0,0,1-4.2,0,3,3,0,0,1-.88-2.17A3,3,0,0,1,31.76,51.52Zm.94,3.61a1.41,1.41,0,0,0,2.33,0,2.43,2.43,0,0,0,0-2.9,1.42,1.42,0,0,0-2.33,0,2.43,2.43,0,0,0,0,2.9Z"/><path class="cls-3" d="M42.31,55.81a.72.72,0,0,0,.16.46.44.44,0,0,0,.34.21v.18H40.56v-.18a.42.42,0,0,0,.33-.21.73.73,0,0,0,.15-.44V52.59a1.27,1.27,0,0,0-.2-.7.67.67,0,0,0-.61-.32,1.3,1.3,0,0,0-.63.16,1.45,1.45,0,0,0-.49.42v3.65a.76.76,0,0,0,.15.46.42.42,0,0,0,.33.21v.18H37.36v-.18a.4.4,0,0,0,.33-.21.78.78,0,0,0,.15-.45V51.94a.75.75,0,0,0-.15-.45.41.41,0,0,0-.33-.2v-.18l1.76-.53V51a1.55,1.55,0,0,1,1.11-.4,2.5,2.5,0,0,1,.72.11,2.4,2.4,0,0,1,.67.32,1.51,1.51,0,0,1,.51.62,2.15,2.15,0,0,1,.19.93Z"/><path class="cls-3" d="M47.54,51.2a1.89,1.89,0,0,1,.8,1.53,1.91,1.91,0,0,1-.24.94,2,2,0,0,1-.6.68,3.06,3.06,0,0,1-.79.4,2.62,2.62,0,0,1-.83.14q-1.4,0-1.4.39t2,.45a4.7,4.7,0,0,1,.55,0,4.35,4.35,0,0,1,.7.16,3,3,0,0,1,.72.31,1.67,1.67,0,0,1,.54.55,1.52,1.52,0,0,1,.23.82,2,2,0,0,1-.3,1.06,2.31,2.31,0,0,1-.77.76,3.85,3.85,0,0,1-1,.43A4.41,4.41,0,0,1,46,60a3.91,3.91,0,0,1-2.06-.54,1.61,1.61,0,0,1-.9-1.4.91.91,0,0,1,.37-.81,1.64,1.64,0,0,1,.95-.25,1.66,1.66,0,0,0-.15.85,1.55,1.55,0,0,0,.53,1.1,2,2,0,0,0,1.48.53A2,2,0,0,0,47.64,59a1.46,1.46,0,0,0,.52-1,1.11,1.11,0,0,0-.55-.85A2.7,2.7,0,0,0,46,56.7q-2.7,0-2.7-1a.79.79,0,0,1,.16-.48.91.91,0,0,1,.38-.31,3.46,3.46,0,0,1,.45-.16,2,2,0,0,1,.38-.07h.16l-.15,0-.33-.17a1.94,1.94,0,0,1-.43-.32,1.72,1.72,0,0,1-.34-.53,1.84,1.84,0,0,1-.15-.75,1.88,1.88,0,0,1,.41-1.2,2.32,2.32,0,0,1,1-.73,2.94,2.94,0,0,1,1.11-.22,2.8,2.8,0,0,1,1.15.25,3.26,3.26,0,0,1,1.19-.23,2.84,2.84,0,0,1,.52,0,1.65,1.65,0,0,1,.35.1l.1,0-.48.91-.17-.11a.41.41,0,0,0-.19-.33.72.72,0,0,0-.45-.14Zm-2.82,1.64a1.57,1.57,0,0,0,.31,1,1,1,0,0,0,.82.38,1.09,1.09,0,0,0,.88-.37,1.55,1.55,0,0,0,.31-1q0-1.48-1.19-1.48a1,1,0,0,0-.82.39A1.75,1.75,0,0,0,44.72,52.84Z"/><path class="cls-3" d="M52.26,53.06a2,2,0,0,1,.73.71,9.18,9.18,0,0,1,.69,1.15A6.73,6.73,0,0,0,54.32,56q.36.47.65.47v.21H53.16l-.11-.25-.28-.59q-.21-.43-.42-.79a6.82,6.82,0,0,0-.48-.73,2.41,2.41,0,0,0-.51-.53v2a.75.75,0,0,0,.15.46.42.42,0,0,0,.33.21v.18H49.62v-.18a.4.4,0,0,0,.33-.21.78.78,0,0,0,.15-.45v-6a.73.73,0,0,0-.15-.45.41.41,0,0,0-.33-.2V49l1.75-.52v4l1-1.78h1.82v.18a.82.82,0,0,0-.35.09,1.83,1.83,0,0,0-.33.2,2,2,0,0,0-.32.32l-.28.36q-.11.16-.25.39l-.2.35-.16.31Z"/><path class="cls-3" d="M55.33,51.52a2.92,2.92,0,0,1,4.21,0,3,3,0,0,1,.87,2.15,3,3,0,0,1-.88,2.17,2.88,2.88,0,0,1-4.2,0,3,3,0,0,1-.88-2.17A3,3,0,0,1,55.33,51.52Zm.94,3.61a1.41,1.41,0,0,0,2.33,0,2.43,2.43,0,0,0,0-2.9,1.42,1.42,0,0,0-2.33,0,2.43,2.43,0,0,0,0,2.9Z"/><path class="cls-3" d="M63.74,50.6a3.07,3.07,0,0,1,.62.06,1.85,1.85,0,0,1,.41.12l.13.06-.57,1.36-.2-.15a.67.67,0,0,0-.22-.51.75.75,0,0,0-.53-.21,1.13,1.13,0,0,0-.79.33v4.13a.75.75,0,0,0,.15.46.42.42,0,0,0,.33.21v.18H60.83v-.18a.4.4,0,0,0,.33-.21.78.78,0,0,0,.15-.45V51.93a.73.73,0,0,0-.15-.45.41.41,0,0,0-.33-.2v-.18l1.76-.53v.33A2.25,2.25,0,0,1,63.74,50.6Z"/><path class="cls-3" d="M70.27,55.81a.72.72,0,0,0,.16.46.44.44,0,0,0,.34.21v.18H68.51v-.18a.42.42,0,0,0,.33-.21.73.73,0,0,0,.15-.44V52.59a1.27,1.27,0,0,0-.2-.7.68.68,0,0,0-.61-.32,1.3,1.3,0,0,0-.63.16,1.45,1.45,0,0,0-.49.42v3.65a.76.76,0,0,0,.15.46.42.42,0,0,0,.33.21v.18H65.31v-.18a.41.41,0,0,0,.33-.21.78.78,0,0,0,.15-.45V51.94a.75.75,0,0,0-.15-.45.41.41,0,0,0-.33-.2v-.18l1.76-.53V51a1.55,1.55,0,0,1,1.11-.4,2.5,2.5,0,0,1,.72.11,2.4,2.4,0,0,1,.67.32,1.51,1.51,0,0,1,.51.62,2.15,2.15,0,0,1,.19.93Z"/><path class="cls-3" d="M80.3,48.66a.42.42,0,0,0-.33.22.73.73,0,0,0-.16.43v6.5a.73.73,0,0,0,.15.45.42.42,0,0,0,.33.2v.19H78.54v-.88a3.35,3.35,0,0,1-2.35,1,2.43,2.43,0,0,1-.9-.16,2,2,0,0,1-.67-.42,2.41,2.41,0,0,1-.45-.59,2.59,2.59,0,0,1-.33-1.25v-5a.75.75,0,0,0-.16-.42.42.42,0,0,0-.33-.23v-.19H75.6v.19a.42.42,0,0,0-.33.22.73.73,0,0,0-.16.43v5a2.37,2.37,0,0,0,0,.36,1.57,1.57,0,0,0,.12.38,1.12,1.12,0,0,0,.24.36,1.14,1.14,0,0,0,.42.25,1.78,1.78,0,0,0,.62.1,2.86,2.86,0,0,0,2-1.19V49.3a.75.75,0,0,0-.16-.42.42.42,0,0,0-.33-.23v-.19H80.3Z"/><path class="cls-3" d="M85.67,55.81a.72.72,0,0,0,.16.46.44.44,0,0,0,.34.21v.18H83.91v-.18a.42.42,0,0,0,.33-.21.73.73,0,0,0,.15-.44V52.59a1.28,1.28,0,0,0-.2-.7.68.68,0,0,0-.61-.32,1.3,1.3,0,0,0-.63.16,1.45,1.45,0,0,0-.49.42v3.65a.76.76,0,0,0,.15.46.42.42,0,0,0,.33.21v.18H80.71v-.18a.41.41,0,0,0,.33-.21.78.78,0,0,0,.15-.45V51.94a.75.75,0,0,0-.15-.45.41.41,0,0,0-.33-.2v-.18l1.76-.53V51a1.55,1.55,0,0,1,1.11-.4,2.5,2.5,0,0,1,.72.11A2.4,2.4,0,0,1,85,51a1.51,1.51,0,0,1,.51.62,2.15,2.15,0,0,1,.19.93Z"/><path class="cls-3" d="M88.33,55.81a.73.73,0,0,0,.15.45.42.42,0,0,0,.33.2v.19H86.58v-.19a.41.41,0,0,0,.33-.21.76.76,0,0,0,.15-.45V52a.73.73,0,0,0-.15-.45.41.41,0,0,0-.33-.2v-.18l1.76-.53Zm-1.09-6a.62.62,0,0,1,0-.9.63.63,0,0,1,.46-.19.6.6,0,0,1,.45.19.64.64,0,0,1,0,.9.6.6,0,0,1-.45.19A.63.63,0,0,1,87.25,49.84Z"/><path class="cls-3" d="M89.65,51.28a.53.53,0,0,0-.24-.28.68.68,0,0,0-.36-.12v-.2h2.1v.2a.29.29,0,0,0-.21.08.26.26,0,0,0-.08.19q0,.23.93,3.38.93-3.15.93-3.38t-.28-.27v-.2h2.1v.2a.71.71,0,0,0-.37.12.53.53,0,0,0-.25.28l-.4,1.41-.75,2.66q-.36,1.28-.37,1.3H91.17s-.13-.45-.37-1.3L90,52.69Z"/><path class="cls-3" d="M97.44,55.86a2.78,2.78,0,0,0,1-.19,3.29,3.29,0,0,0,.74-.37q.26-.19.58-.47l.41.37-.1.17a3.8,3.8,0,0,1-.32.37,2.86,2.86,0,0,1-1.31.83,3.14,3.14,0,0,1-1,.17,2.92,2.92,0,0,1-2.19-.9,3.13,3.13,0,0,1,0-4.33,2.85,2.85,0,0,1,2.15-.92,3,3,0,0,1,.91.13,2.37,2.37,0,0,1,.7.34,3.26,3.26,0,0,1,.51.47,2.49,2.49,0,0,1,.36.51q.13.26.22.47a2.14,2.14,0,0,1,.12.34l0,.13a14.22,14.22,0,0,0-4.41,1.66,2.16,2.16,0,0,0,.64.88A1.52,1.52,0,0,0,97.44,55.86Zm-.06-4.24a1.58,1.58,0,0,0-1.26.59,2.2,2.2,0,0,0-.5,1.47v.06A10.25,10.25,0,0,1,97.17,53a9.84,9.84,0,0,1,1.61-.49,1.25,1.25,0,0,0-.47-.63A1.5,1.5,0,0,0,97.38,51.61Z"/><path class="cls-3" d="M103.66,50.6a3.07,3.07,0,0,1,.62.06,1.86,1.86,0,0,1,.41.12l.13.06-.57,1.36-.2-.15a.67.67,0,0,0-.22-.51.75.75,0,0,0-.53-.21,1.13,1.13,0,0,0-.79.33v4.13a.75.75,0,0,0,.15.46.42.42,0,0,0,.33.21v.18h-2.24v-.18a.41.41,0,0,0,.33-.21.78.78,0,0,0,.15-.45V51.93a.73.73,0,0,0-.15-.45.41.41,0,0,0-.33-.2v-.18l1.76-.53v.33A2.25,2.25,0,0,1,103.66,50.6Z"/><path class="cls-3" d="M107.23,50.63a2.82,2.82,0,0,1,.92.16,3,3,0,0,1,.67.31l.21.16-.57,1.08-.26-.12a.74.74,0,0,1,0-.14.46.46,0,0,0-.24-.37,1.18,1.18,0,0,0-.67-.17q-.89,0-.89.76a.4.4,0,0,0,.16.32,1.25,1.25,0,0,0,.41.21l.56.16a4.24,4.24,0,0,1,.62.22,2.59,2.59,0,0,1,.56.33,1.43,1.43,0,0,1,.41.55,2,2,0,0,1,.16.82,1.41,1.41,0,0,1-.18.7,1.64,1.64,0,0,1-.44.52,2.84,2.84,0,0,1-.57.33,3.08,3.08,0,0,1-.56.19,2,2,0,0,1-.42.06,4.34,4.34,0,0,1-1.18-.15,2.22,2.22,0,0,1-.73-.31L105,56.1l.57-1.19.18.08a3.39,3.39,0,0,1,.05.4c0,.06,0,.13.14.2a1.38,1.38,0,0,0,.43.19,2.24,2.24,0,0,0,.63.09,1.16,1.16,0,0,0,.8-.24.72.72,0,0,0,.27-.54.67.67,0,0,0-.29-.56,2.41,2.41,0,0,0-.69-.35q-.41-.14-.81-.31a1.66,1.66,0,0,1-.69-.57,1.68,1.68,0,0,1-.29-1,1.41,1.41,0,0,1,.63-1.18A2.21,2.21,0,0,1,107.23,50.63Z"/><path class="cls-3" d="M111.43,55.81a.73.73,0,0,0,.15.45.42.42,0,0,0,.33.2v.19h-2.24v-.19a.41.41,0,0,0,.33-.21.76.76,0,0,0,.15-.45V52a.73.73,0,0,0-.15-.45.41.41,0,0,0-.33-.2v-.18l1.76-.53Zm-1.09-6a.62.62,0,0,1,0-.9.63.63,0,0,1,.46-.19.6.6,0,0,1,.45.19.64.64,0,0,1,0,.9.6.6,0,0,1-.45.19A.63.63,0,0,1,110.34,49.84Z"/><path class="cls-3" d="M112,51.62l.36-.94a1,1,0,0,0,.58-.18,1.17,1.17,0,0,0,.39-.43,3.62,3.62,0,0,0,.22-.5,2.11,2.11,0,0,0,.11-.43l0-.17h.67v1.71h1.29l-.29.94h-1v3.3q0,1,1.23,1v.73h-.88a1.6,1.6,0,0,1-1.15-.47,1.54,1.54,0,0,1-.48-1.15V51.62Z"/><path class="cls-3" d="M118.79,54.49q.93-3.15.93-3.35a.25.25,0,0,0-.08-.19.28.28,0,0,0-.21-.08v-.2h2.1v.2a.68.68,0,0,0-.36.12.53.53,0,0,0-.24.28s-.16.59-.48,1.72l-1,3.4q-.49,1.71-.58,2a1.84,1.84,0,0,1-.37.62,2.08,2.08,0,0,1-.51.43,4.84,4.84,0,0,1-.51.26,2,2,0,0,1-.41.14l-.15,0v-.42l.13-.09a1.82,1.82,0,0,0,.26-.28,1.67,1.67,0,0,0,.27-.47q.18-.53.57-1.93s-.52-1.8-1.54-5.37a.53.53,0,0,0-.24-.28.66.66,0,0,0-.36-.12v-.2h2.09v.2a.28.28,0,0,0-.21.08.25.25,0,0,0-.08.19,9.41,9.41,0,0,0,.23.92q.23.84.46,1.64Z"/></svg>